<?xml version="1.0" encoding="utf-8"?>
<!-- Generator: Adobe Illustrator 27.5.0, SVG Export Plug-In . SVG Version: 6.00 Build 0)  -->
<svg version="1.1" id="Layer_1" xmlns="http://www.w3.org/2000/svg" xmlns:xlink="http://www.w3.org/1999/xlink" x="0px" y="0px"
	 viewBox="0 0 240 120" style="enable-background:new 0 0 240 120;" xml:space="preserve">
<style type="text/css">
	.st0{fill-rule:evenodd;clip-rule:evenodd;fill:#FFFFFF;}
	.st1{fill:none;}
	.st2{fill:#FFFFFF;}
	.st3{font-family:'Verdana-Bold';}
	.st4{font-size:24px;}
	.st5{fill:#FFFFFF;stroke:#00008C;stroke-width:0.5;stroke-miterlimit:10;}
</style>
<path class="st0" d="M60.6,57.7c-6.9,3.6-7.9,6-4.4,12.1c1.2,2.1,1.9,4,1.7,6.4c-0.6,8.2,1,9.6,9.9,8.7
	c-5.3,14.9-23.4,24.4-39.6,20.8c-3.3-0.7-3.9-1.9-3.3-5.1c1.9-10.3-2.6-18.6-11.9-23.1C-0.3,71-1.6,60.4,10.6,49.7
	c-0.3,3.7-0.5,6.9,2,9.5c2.6,2.6,5.8,3.2,9.5,2.9c3.6-0.3,3.8,2,3,4.5c-1.6,5.6,0.1,10.2,5.3,13.3c4.3,2.5,8.8,2.4,12.9-0.4
	c5-3.4,6.1-8,4.6-13.6c-2-7.5,1.6-11.1,10-10.5C58.7,56.4,61.4,55.3,60.6,57.7L60.6,57.7z"/>
<path class="st0" d="M18.7,23.6c0-7.3,4.1-13.2,10.4-15.7c6.8-2.6,14.3-1.2,19.3,3.6c5,4.9,6.7,12.2,3.2,18.2
	c-4.1,7-9,13.6-13.5,20.3c-0.8,1.2-2,2.8-3.4,0.8c-5.2-8-11.9-15.2-15.5-24.1C18.7,25.4,18.8,24.1,18.7,23.6L18.7,23.6z"/>
<path class="st0" d="M61.7,51.4c-2.8-0.2-4.9-0.7-7-0.5c-8.1,0.6-13,7.3-11,15.6c1,4,1,7.3-2.8,9.8c-2.8,1.8-5.7,1.8-8.6,0
	c-3.6-2.3-3.8-5.5-3-9.3c1.3-6.2-1.1-9-7.6-8.9c-2.8,0-5.3,0-6.6-2.7c-1.3-2.7-0.1-4.9,2.1-6.5c2.6-1.8,1.3-7.2,5.6-6.6
	c3.2,0.4,3.9,4.6,5.8,7c2.2,2.8,4.1,5.8,6.1,8.7c0.2,0.3,0.6,0.5,1.8,1.4c3.1-4.4,6.4-8.5,9-13.1c2.4-4.2,5-4.5,8.6-1.8
	C56.6,46.4,59.6,47.8,61.7,51.4L61.7,51.4z"/>
<path class="st0" d="M0.7,74.7C3.5,78,7.2,79.5,11,81.1c7.3,3.2,11.4,10.7,10.2,17.7c-0.6,3.4-1.9,4.3-5.1,2.2
	C6.4,94.6,0.7,86.2,0.7,74.7z"/>
<path class="st0" d="M62.1,76c0.4-3.2-0.6-6.1-2.6-8.7c-1.5-2-1.4-4,1.1-5.1c2.3-1,3.8,0.3,4.6,2.2c0.9,2.2,2.6,3.7,4.4,5.2
	c2.3,1.9,2,4.9,0.6,6.8c-1.5,2-4.2,4.4-6.5,4.5C60.5,81,62.3,77.8,62.1,76L62.1,76z"/>
<path class="st0" d="M60.6,57.7c-0.9-0.8-1.7-1.5-2.6-2.3c3,0.7,7.5-2.4,9.2,3.4C64.7,58.4,62.6,58.1,60.6,57.7z"/>
<rect x="77.1" y="48.4" class="st1" width="158.6" height="51.7"/>
<text transform="matrix(1 0 0 1 77.085 66.6445)"><tspan x="0" y="0" class="st2 st3 st4">LIFEGUARD</tspan><tspan x="0" y="33" class="st2 st3 st4">TRACKING</tspan></text>
<path class="st5" d="M36.2,11c-6.8,0-12.4,5.3-12.4,11.7s5.6,11.7,12.4,11.7s12.4-5.3,12.4-11.7S43.1,11,36.2,11z M30,22.7
	c0-3.2,2.8-5.8,6.2-5.8s6.2,2.6,6.2,5.8s-2.8,5.8-6.2,5.8S30,25.9,30,22.7z M43.4,25.3c0.5-0.7,0.6-1.8,0.6-2.6s-0.2-1.9-0.6-2.6
	l2.3-2.2c0.9,1.5,1.4,3.1,1.4,4.8s-0.5,3.4-1.2,4.8L43.4,25.3L43.4,25.3z M41.4,13.6L39,16c-0.8-0.4-1.9-0.6-2.8-0.6s-2,0.1-2.8,0.6
	l-2.3-2.3c1.5-0.7,3.3-1.2,5.1-1.2S39.8,12.9,41.4,13.6L41.4,13.6z M26.6,17.9l2.3,2.2c-0.3,0.7-0.5,1.8-0.5,2.6s0.2,1.9,0.6,2.6
	l-2.3,2.2c-0.9-1.5-1.4-3.1-1.4-4.8S25.9,19.4,26.6,17.9L26.6,17.9z M31.1,31.8l2.3-2.2c0.8,0.3,1.9,0.4,2.8,0.4s2-0.1,2.8-0.6
	l2.3,2.2c-1.5,0.9-3.3,1.3-5.1,1.3C34.4,33,32.7,32.5,31.1,31.8L31.1,31.8z"/>
<path class="st5" d="M44.1,25c0-0.2-0.2-0.4-0.5-0.4h-1.8c-0.3,0-0.5,0.2-0.5,0.4v1.3H44L44.1,25L44.1,25z M33.9,28
	c-0.1,2.5-1.7,3.1-1.8,6.6v1.2c0,0.5,0.4,0.9,0.9,0.9h3.7c0.5,0,0.9-0.4,0.9-0.9v-8.7h-2.8C34.3,27.2,33.9,27.6,33.9,28z M45,28
	c0-0.5-0.4-0.9-0.9-0.9h-2.8v8.7c0,0.5,0.4,0.9,0.9,0.9h3.7c0.5,0,0.9-0.4,0.9-0.9v-1.2C46.7,31.1,45.1,30.6,45,28z M38.5,31.5h1.8
	v-4.4h-1.8V31.5z M37.1,24.6h-1.8c-0.3,0-0.5,0.2-0.5,0.4v1.3h2.8V25C37.6,24.7,37.4,24.6,37.1,24.6L37.1,24.6z"/>
</svg>
