<?xml version="1.0" encoding="utf-8"?>
<!-- Generator: Adobe Illustrator 27.5.0, SVG Export Plug-In . SVG Version: 6.00 Build 0)  -->
<svg version="1.1" id="Laag_1" xmlns="http://www.w3.org/2000/svg" xmlns:xlink="http://www.w3.org/1999/xlink" x="0px" y="0px"
	 viewBox="0 0 24 24" style="enable-background:new 0 0 24 24;" xml:space="preserve">
<g id="layer1">
	<path d="M6.4,7v1.5H6.1H5.8v0.1v0.1h0.3h0.3v0.2v0.2H6.3c-0.2,0-0.5-0.4-0.5-0.6c0-0.1,0-0.1,0.1-0.1s0.1-0.2,0-0.2
		S5.8,8.1,5.8,7.9c0-0.4,0.1-0.4,0.1,0c0,0.1,0,0,0-0.3c0-0.3,0-0.4,0-0.3c0,0.2,0,0.3,0,0.3c-0.1,0-0.2,0-0.2-0.3V7v0.3
		c0,0.3,0,0.3-0.1,0.3s-0.1,0-0.1-0.3c0-0.2,0,0,0,0.3c0,0.3,0,0.5,0,0.3s0-0.3,0.1-0.3c0,0,0.1,0.1,0.1,0.6c0,0.6,0,0.6-0.1,0.7
		C5.5,9,5.5,9.2,5.6,9.3c0.1,0,0.1,0.1,0.1,0.6c0,0.3,0,0.7,0,0.9c0,0.3,0,0.3-0.1,0.4c-0.1,0-0.1,0.2-0.3,0.7
		c-0.1,0.4-0.2,0.7-0.2,0.8c0,0,0,0.1,0.1,0.1s0.1,0,0.1,0.1s0,0.1-0.1,0.1s-0.1,0-0.1,0.1c0,0.1,0,0.1,0.1,0.1s0.1,0,0.1,0.1
		c0,0.1,0,0.1-0.1,0.1s-0.1,0-0.1,0.1s0,0.1-0.1,0.1H4.9v-0.3C4.9,13,4.9,13,5,13h0.1c0,0,0-0.1-0.1-0.1c0,0-0.1,0-0.1-0.1
		c0-0.1-0.2-0.1-0.2,0c0,0.1,0,0.1-0.1,0.1c-0.1,0-0.1,0.1,0,0.2c0.1,0,0.1,0,0.1,0.1v0.1c0,0-0.1,0.1-0.7,0c-0.6,0-1.8-0.1-2.2-0.2
		c-0.1,0-0.2,0-0.1,0c0.1,0.1,0.1,0.2,0,0.2c0,0-0.2,0-0.4-0.1c-0.6-0.1-0.8,0-1,0.3C0,13.8,0,13.9,0,14.1c0,0.2,0.2,0.5,0.4,0.5
		c0.1,0,0.1,0,0.1,0.2v0.2L1,15.3c0.3,0.1,0.8,0.3,1.1,0.4l0.6,0.2H2.4c-0.6,0,1.9,0.1,8.1,0.1c8.7,0.1,11.6,0.1,11.6,0
		c0,0-0.1,0-0.2,0s-0.2,0-0.2,0s0.2-0.2,0.4-0.5c1.1-1.3,1.2-1.4,1.2-1.5c0-0.1,0-0.1,0.2-0.2c0.6-0.2,0.6-0.9,0.1-1.1
		c-0.1-0.1-0.2-0.1-0.7-0.1h-0.6v-0.2c0-0.2,0-0.2-0.1-0.3c-0.2,0-0.2,0-0.2,0.2v0.3h-0.2h-0.2v0.1v0.1l-0.4,0.1
		c-0.7,0.1-2.2,0.3-2.7,0.4l-0.5,0.1L18,13.2c-0.1-0.2-0.4-0.3-0.5-0.3s-0.2,0-0.2-0.1c-0.1-0.1-0.1-0.1-0.4-0.1c-0.2,0-0.3,0-0.1,0
		c0.3,0,0.4,0,0.4,0.1h-0.7c0,0,0,0,0.1-0.1c0.1,0,0,0-0.3-0.1c-1.1-0.1-3-0.2-3.3-0.2c-0.2,0-0.3,0-0.3,0c0,0.1-0.2,0-0.9-0.8
		c-0.5-0.5-0.9-0.8-0.9-0.9c-0.1,0-0.2-0.1-0.3-0.1c-0.1,0-0.2,0-0.1,0c0.1,0,0.1-0.3,0-0.3c0,0-0.1,0-0.1,0.1
		c-0.1,0.1-0.1,0.1,0,0.1c0.1,0.1,0.1,0.1-0.1,0.1c-0.1,0-0.1,0-0.1-0.1v-0.1v0.1c0,0.1,0,0.1-0.2,0.1c-0.2,0-0.2,0-0.3-0.1
		c0-0.1-0.1-0.1-0.1-0.1c-0.1,0-0.1-0.1-0.1-0.5V9.4v0.5v0.5H9.2c-0.3,0-0.3,0-0.3,0.1v0.1H8.5c-0.4,0-0.4,0-0.4-0.1
		c0-0.2-0.2-0.3-0.3-0.1l-0.1,0.1c0,0,0-0.4,0-0.8V8.9v0.7c0,0.4,0,0.7,0,0.7S7.5,10.2,7.4,10c-0.2-0.3-0.2-0.5,0-0.5
		c0.1,0,0.1,0,0.1-0.1V9.3c0.1,0,0-0.2,0-0.2s0,0,0-0.1c0.1-0.1,0-0.3-0.1-0.3H7.3c0,0,0.2,0,0.4,0h0.4V8.6V8.5H7H6.4V7
		c0-0.8,0-1.5,0-1.5C6.4,5.4,6.4,6.1,6.4,7z M5.9,9.2c0,0,0,0-0.1,0c-0.1,0-0.1,0-0.1-0.1V9l0.1,0.1C5.9,9.1,5.9,9.2,5.9,9.2z
		 M6.4,9.6v0.2H6H5.7V9.6V9.4H6h0.3L6.4,9.6z M6.5,9.6c0,0.2-0.1,0.2-0.1,0c0-0.1,0-0.2,0-0.2C6.5,9.4,6.5,9.5,6.5,9.6z M6.4,10.2
		c0,0.2,0,0.2-0.1,0.2s-0.1,0-0.2,0c-0.1,0-0.1,0-0.1,0s0,0-0.1,0s-0.1,0-0.1,0.1v0.1c0,0,0-0.1,0-0.3V9.9H6h0.3L6.4,10.2z
		 M6.7,10.3c0.2,0.4,0.2,0.4,0.2,0.4s-0.1-0.1-0.2-0.2c-0.1-0.2-0.1-0.2-0.2-0.2c-0.1,0-0.1,0-0.1-0.2C6.4,9.9,6.5,9.9,6.7,10.3z
		 M5.5,11.3v0.1c0,0.1-0.1,0.1-0.1,0.1c-0.1,0-0.1,0,0-0.2C5.4,11.2,5.5,11.2,5.5,11.3z M5.3,11.6c0.1,0,0.1,0.1,0,0.2
		c0,0.1,0,0.1-0.1,0.1s-0.1-0.1,0-0.2C5.2,11.6,5.2,11.6,5.3,11.6z M5.2,12v0.1c0,0.1,0,0.1-0.1,0.1c-0.1,0-0.1,0-0.1-0.1
		C5.1,12,5.1,12,5.2,12z M5.1,12.4c0.1,0,0,0.2,0,0.2C5,12.6,5,12.5,5,12.4S5,12.3,5.1,12.4z M13.2,12.5c0,0-0.1,0-0.3,0
		c-0.2,0-0.3,0-0.3,0s0.1,0,0.3,0C13,12.5,13.2,12.5,13.2,12.5z M13.9,12.5C13.9,12.5,13.9,12.6,13.9,12.5c0,0.1-0.6,0-0.7,0
		c0,0,0.1,0,0.3,0C13.7,12.5,13.8,12.5,13.9,12.5z M14.6,12.6L14.6,12.6c0,0.1,0,0.1-0.2,0.1c-0.3,0-0.4,0-0.4-0.1
		C14,12.5,14.5,12.5,14.6,12.6z M15.2,12.6C15.3,12.7,15.3,12.7,15.2,12.6c0,0.1-0.6,0-0.6,0C14.7,12.6,15.2,12.6,15.2,12.6z
		 M15.8,12.7c0,0-0.1,0-0.2,0c-0.1,0-0.2,0-0.2,0s0.1,0,0.2,0C15.7,12.6,15.8,12.6,15.8,12.7z M16.3,12.7c0,0-0.1,0-0.2,0
		c-0.2,0-0.3,0-0.2-0.1L16.3,12.7z M1.9,13.3c0,0,0.1,0.1,0.1,0.2s0,0.1-0.1,0.1H1.7c-0.1,0-0.1,0-0.1-0.1s0-0.1,0.2-0.1
		C1.8,13.3,1.9,13.3,1.9,13.3z M2.5,13.4v0.1v0.1v-0.1c0-0.1,0-0.1,0.2-0.1H3v0.1v0.2H2.8c-0.1,0-0.2,0-0.2,0s-0.1,0-0.2,0
		c-0.3,0-0.3,0-0.3-0.2v-0.2h0.2C2.3,13.3,2.4,13.3,2.5,13.4z M3.5,13.6v0.2H3.3H3v-0.2v-0.2h0.2h0.2L3.5,13.6z M4,13.6v0.1H3.8H3.6
		v-0.1v-0.2h0.2H4V13.6z M4.4,13.6c0,0.2,0,0.2-0.2,0.1c-0.1,0-0.1,0-0.1-0.2v-0.1h0.2h0.2v0.2H4.4z"/>
</g>
</svg>
