<?xml version="1.0" encoding="utf-8"?>
<!-- Generator: Adobe Illustrator 27.5.0, SVG Export Plug-In . SVG Version: 6.00 Build 0)  -->
<svg version="1.1" id="Laag_1" xmlns="http://www.w3.org/2000/svg" xmlns:xlink="http://www.w3.org/1999/xlink" x="0px" y="0px"
	 viewBox="0 0 24 24" style="enable-background:new 0 0 24 24;" xml:space="preserve">
<g id="layer1_00000049909225680773176490000015146018450394222015_">
	<path id="icon" d="M1.4,7.2c0,0.1,0,0.1,0.1,0.1s0.1,0,0.1-0.1s0-0.1-0.1-0.1C1.4,7.1,1.4,7.1,1.4,7.2 M1.6,7.5
		c0,0,0.1,0.3,0.2,0.6C2,8.4,2.1,8.6,2.1,8.6s-0.1,0-0.2,0c-0.1,0-0.1,0-0.1,0s0,0.1,0,0.2V9H2c0.2,0,0.2-0.1,0.4,0.7
		c0.1,0.2,0.1,0.5,0.2,0.6v0.2H2.2c-0.3,0-0.4,0-0.4,0l0.1-0.1c0.1,0,0.1,0,0.1-0.5c0-0.4,0-0.5,0-0.5c-0.1,0-0.5,0-0.5,0
		s0,0.2,0,0.5v0.5h0.1c0.1,0,0.1,0,0.1,0.1c0,0,0.2,0.1,0.4,0.3c0.2,0.1,0.4,0.2,0.5,0.3c0,0,0,0.2,0.1,0.4v0.4H2.3H1.8L1.7,12
		c0,0.1-0.1,0.2-0.1,0.2c-0.1,0.1-0.2,0.1-0.2,0c0-0.1,0-0.1-0.2-0.1c-0.3-0.1-0.3-0.1-0.3,0c0,0.1-0.1,0.1-0.3,0.1
		c-0.4,0.1-0.4,0.1-0.5,0.3c-0.1,0.3,0,0.3,0.9,0.9c0.3,0.2,0.5,0.3,0.6,0.3s0.2,0,0.2,0S2,13.9,2,14.2c0,0.3,0.1,0.5,0.1,0.6
		c0,0.1,0,0.1-0.4,0.1c-0.2,0-0.4,0-0.4,0s2.9,0,10.1,0c5.6,0,10.2,0,10.2,0s0.1,0,0.1-0.1c0,0-0.2,0-0.6,0h-0.6l0.3-0.2
		c0.7-0.4,1.1-0.8,1.7-1.5c0.3-0.3,0.4-0.4,0.5-0.4c0.1,0,0.1,0,0.1-0.2c0-0.1,0-0.1,0.1-0.2c0.2-0.1,0.6-0.3,0.7-0.4
		c0.1-0.2,0.2-0.4,0.2-0.6c-0.1-0.4-0.6-0.8-1-0.8c-0.2,0-0.2,0-0.3,0.2l-0.1,0.2l-0.5,0.2c-1.9,0.4-3.1,0.6-4.4,0.8
		c-0.4,0-0.8,0.1-0.9,0.1s-0.1,0-0.2-0.1c-0.1-0.3-0.6-0.2-0.7,0c0,0.1-0.1,0.1-0.2,0.1c-0.1,0-0.1,0-0.1,0s0.1-0.1,0.1-0.3
		c0.1-0.2,0.1-0.2,0.3-0.2h0.2l0.2-0.4c0.1-0.2,0.2-0.4,0.2-0.5c0-0.1-0.1-0.2-0.7-0.2h-0.5L15.1,11c-0.2,0.3-0.3,0.5-0.3,0.5
		s-0.1,0-0.1-0.1c0-0.1,0-0.1,0,0v0.1c0,0,0,0-0.1,0.1l-0.1,0.1c-0.1,0-0.1,0,0,0c0.2,0,0.2,0,0.1,0.3c-0.1,0.2-0.1,0.2-0.2,0.2
		c-0.1,0-0.2,0-0.4,0h-0.3v-0.1c0-0.1,0-0.1-0.1-0.1c-0.1,0-0.1,0-0.1-0.2c0-0.1,0-0.2,0-0.2s0,0.1,0,0.2V12h-0.1
		c-0.1,0-0.2,0-0.2,0.1c-0.1,0.1-0.1,0.2-0.3,0.2h-0.2l-0.1-0.2c-0.1-0.1-0.1-0.3-0.2-0.3c-0.1-0.1-0.1-0.2-0.1-0.6
		c0-0.5-0.1-0.7-0.1-0.6c0,0,0,0.3,0,0.6v0.6h-0.1c-0.1,0-0.1,0-0.1,0.3v0.3h-1.2c-0.7,0-2.2,0-3.3,0h-2L5,11L4.6,9.6H3.7H2.8V9.4
		C2.3,9.1,1.7,7.5,1.6,7.5C1.7,7.4,1.6,7.5,1.6,7.5z M4.4,10.2c0,0.1,0.1,0.2,0.1,0.2s-0.4,0-0.9,0c-0.8,0-0.9,0-0.9-0.1
		c0,0,0-0.1,0-0.2V10h0.9h0.9L4.4,10.2z M15.8,10.6c0,0,0,0.1-0.1,0.3l-0.1,0.2h-0.2c-0.1,0-0.2,0-0.2,0s0-0.1,0.1-0.2
		c0-0.1,0.1-0.2,0.2-0.2c0.1-0.1,0.1-0.1,0.2-0.1C15.7,10.6,15.8,10.6,15.8,10.6z M16.4,10.6c0.1,0,0.1,0,0.1,0.1
		c0,0-0.1,0.2-0.2,0.4c-0.2,0.3-0.2,0.4-0.3,0.4c-0.1,0-0.1-0.1,0-0.2c0-0.1,0.1-0.2,0.2-0.3c0.1-0.2,0.1-0.2,0-0.3
		C16.1,10.6,16.2,10.5,16.4,10.6z M4.7,11.1c0,0.1,0.1,0.2,0.1,0.3c0,0-0.5,0-1,0h-1v-0.1c0-0.1,0-0.2,0-0.3v-0.1h1h1L4.7,11.1z
		 M4.9,11.9C5,12.1,5,12.3,5,12.3s-0.3,0-0.7,0H3.6L3.3,12c-0.2-0.2-0.3-0.3-0.4-0.3c-0.1,0-0.1,0-0.1-0.1v-0.1h1h1L4.9,11.9z
		 M1.3,12c0,0.1,0,0.1-0.2,0.1s-0.2,0-0.2,0C0.9,12,1.3,11.9,1.3,12z M3.4,14.5c0,0,0.1,0.2,0.1,0.3c0,0-0.1,0-0.4,0
		c-0.2,0-0.4,0-0.4,0c0-0.1,0.1-0.5,0.1-0.5s0.1,0,0.2,0.1C3.3,14.4,3.4,14.5,3.4,14.5 M14.6,11.1c-0.1,0.1-0.2,0.3-0.3,0.5
		c-0.1,0.2-0.2,0.3-0.2,0.3s0.1,0,0.1-0.1c0.1-0.1,0.1-0.1,0.1-0.1s0.1-0.2,0.2-0.3c0.1-0.1,0.1-0.1,0.1-0.1l0,0
		C14.6,11.2,14.6,11.1,14.6,11.1c0.1-0.1,0.1-0.2,0.1-0.2C14.7,10.9,14.6,11,14.6,11.1z"/>
</g>
</svg>
