<?xml version="1.0" encoding="utf-8"?>
<!-- Generator: Adobe Illustrator 27.5.0, SVG Export Plug-In . SVG Version: 6.00 Build 0)  -->
<svg version="1.1" id="Laag_1" xmlns="http://www.w3.org/2000/svg" xmlns:xlink="http://www.w3.org/1999/xlink" x="0px" y="0px"
	 viewBox="0 0 24 24" style="enable-background:new 0 0 24 24;" xml:space="preserve">
<style type="text/css">
	.st0{fill:none;stroke:#000000;}
	.st1{fill-rule:evenodd;clip-rule:evenodd;fill:#050505;}
	.st2{fill-rule:evenodd;clip-rule:evenodd;fill:#050505;stroke:#050505;stroke-miterlimit:10;}
	.st3{fill-rule:evenodd;clip-rule:evenodd;fill:#050505;stroke:#050505;stroke-linejoin:round;stroke-miterlimit:10;}
</style>
<g id="layer1">
	<path class="st0" d="M16.5,11.1c-0.5-0.4-1-0.8-1.5-1.2c0.3-0.4,0.6-0.7,0.8-1.1c0,0,0,0-0.1-0.1c-0.6,0.7-1.2,1.4-1.8,2.2
		c0,0,0,0,0.1,0.1c0.3-0.3,0.6-0.7,0.9-1c0.3,0.2,0.6,0.4,0.8,0.7c0.1,0.1,0.2,0.2,0.4,0.3c0.4,0.3,0.4,0.3,0.2,0.7
		c-0.1,0.1-0.2,0.2-0.3,0.2c-0.6-0.1-0.8,0.2-1,0.6c-0.3,0.6-0.6,1.2-1,1.8c-0.2,0.2-0.3,0.2-0.4,0.2c-1,0-2.1,0-3.1,0
		c-0.1,0-0.3-0.1-0.4-0.2c-0.5-0.8-1.1-1.6-1.6-2.5c-0.1-0.1-0.1-0.3-0.1-0.5c0-2.1,0-4.2,0-6.2c0-0.5,0.3-0.7,0.7-0.7
		c1.4,0,2.9,0,4.3,0c0.3,0,0.5,0.1,0.7,0.4C15.1,6.4,16,8,17,9.6c0,0.1,0.1,0.2,0,0.3C16.9,10.2,16.7,10.7,16.5,11.1z"/>
	<path class="st1" d="M0.2,10.9c2.6,0,5.2,0,7.8,0"/>
	<path class="st2" d="M10.3,14.6c0.3,0,0.5,0,0.7,0c0.9,0,1.7,0,2.6,0c0.2,0,0.3-0.1,0.4-0.3c0.4-0.7,0.8-1.5,1.2-2.2
		c0.1-0.2,0.2-0.2,0.4-0.2c0.4,0,0.7,0.1,1.1,0.3c0.5,0.4,1.1,0.8,1.7,1.2c0.1,0.1,0.2,0.2,0.1,0.3c-0.4,1.1-0.9,2.1-1.3,3.2
		c-0.1,0.2-0.3,0.3-0.5,0.3c-1.4,0-2.9,0-4.3,0c-0.2,0-0.4-0.1-0.5-0.3c-0.5-0.7-1-1.5-1.4-2.2C10.4,14.8,10.4,14.7,10.3,14.6z"/>
	<path class="st1" d="M18.8,13.3L18.8,13.3c0.3-0.7,0-1.1-0.3-1.6c-0.4-0.6-0.7-1.2-1.1-1.8c0.1,0,0.2,0,0.3,0
		c1.4,0.5,2.9,0.9,4.3,1.4c0.7,0.2,1.1,0.7,1.6,1.2l0,0c0.7,0.4,0.7,1.1,0.6,1.8c0,0.1-0.1,0.4-0.2,0.4c-0.2,0.1-0.5,0.1-0.6-0.1
		c-0.2-0.3-0.5-0.6-0.7-0.9c-0.3-0.5-0.7-0.7-1.3-0.8c-0.4,0-0.7-0.1-1.1-0.2c-0.3,0-0.5,0-0.8,0.2C19.3,13,19.1,13.2,18.8,13.3z"/>
	<path class="st1" d="M17.3,9.9c0.3,0.4,0.5,0.8,0.7,1.2c0.2,0.3,0.4,0.7,0.6,1c0.3,0.3,0.3,0.7,0.1,1c0,0.1-0.1,0.2-0.1,0.3
		c-0.1,0-0.1-0.1-0.2-0.1c-0.6-0.5-1.3-0.9-1.9-1.4c-0.1-0.1-0.2-0.2-0.1-0.3c0.3-0.6,0.5-1.1,0.8-1.7C17.2,10,17.2,9.9,17.3,9.9z"
		/>
	<path class="st1" d="M1.3,17.5c0-1.6,1.3-2.9,2.9-2.9s2.9,1.3,2.9,2.9c0,1.7-1.4,2.9-2.9,2.9C2.6,20.4,1.3,19.1,1.3,17.5z M4.2,16
		c-0.8,0-1.5,0.7-1.5,1.5S3.4,19,4.2,19c0.9,0,1.5-0.7,1.5-1.6C5.7,16.6,5,16,4.2,16z"/>
	<path class="st1" d="M18.3,17.5c0-1.6,1.3-2.9,2.9-2.9s2.9,1.3,2.9,2.9s-1.3,2.9-2.9,2.9S18.3,19.1,18.3,17.5z M21.2,16
		c-0.7-0.1-1.5,0.6-1.5,1.5c0,0.8,0.7,1.5,1.5,1.5c0.8,0,1.5-0.7,1.5-1.5C22.7,16.6,22.1,16,21.2,16z"/>
	<path class="st1" d="M11.5,3.1c0.4,0,0.8,0,1.2,0c0.2,0,0.3,0.1,0.2,0.2c0,0.1,0,0.2,0,0.3c0,0.1-0.1,0.2-0.2,0.2
		c-0.8,0-1.7,0-2.5,0c-0.1,0-0.1-0.1-0.2-0.2c0-0.1,0-0.2,0-0.2c0-0.2,0-0.3,0.3-0.3C10.7,3.1,11.1,3.1,11.5,3.1z"/>
	<rect x="0.3" y="10.9" class="st3" width="7.4" height="2.8"/>
</g>
</svg>
