<?xml version="1.0" encoding="utf-8"?>
<!-- Generator: Adobe Illustrator 27.5.0, SVG Export Plug-In . SVG Version: 6.00 Build 0)  -->
<svg version="1.1" id="Laag_1" xmlns="http://www.w3.org/2000/svg" xmlns:xlink="http://www.w3.org/1999/xlink" x="0px" y="0px"
	 viewBox="0 0 24 24" style="enable-background:new 0 0 24 24;" xml:space="preserve">
<style type="text/css">
	.st0{fill-rule:evenodd;clip-rule:evenodd;fill:#050505;}
	.st1{fill-rule:evenodd;clip-rule:evenodd;fill:#060606;}
</style>
<g>
	<path class="st0" d="M12.1,23.9c-2-0.9-3.7-2.1-5.3-3.6c0.6-0.7,1.1-1.3,1.6-1.9c0.9,0.7,2,1.4,2.9,2.1c0.5,0.3,0.9,0.4,1.5,0
		c0.9-0.7,1.9-1.4,2.9-2.1c0.5,0.6,1,1.2,1.6,1.9c-1.4,1.4-2.9,2.6-4.7,3.4c-0.2,0.1-0.3,0.2-0.5,0.3C12.2,23.9,12.1,23.9,12.1,23.9
		z"/>
	<path class="st1" d="M15,13.8c1.1-1.5,1.5-3.1,1.2-4.9c0.5,0.2,1,0.3,1.5,0.6c0.2,0.1,0.3,0.4,0.3,0.6c-0.3,3.7-2.2,6.6-5.4,8.5
		c-0.3,0.2-0.8,0-1.3-0.1c2.4-3.2,1.8-6-0.3-8.8c-1.5-2-2.2-4-1.6-6.3C9.9,2,10.8,0.9,12-0.1c-0.1,0.2-0.2,0.3-0.3,0.5
		c-0.9,2.1-0.9,4,0.3,5.9c0.6,0.9,1.2,1.8,1.8,2.8c0.9,1.4,1.2,2.8,0.9,4.5c0,0.1,0,0.2,0,0.3C14.8,13.9,14.9,13.8,15,13.8z"/>
	<path class="st1" d="M19.7,17.5c-0.6-0.7-1.2-1.4-1.8-2.1c1.2-2,1.8-4.1,2-6.3C20,8.4,19.8,7.9,19,7.7c-1-0.3-2-0.8-3-0.9
		c-1-0.2-1.6-0.7-2-1.6c0.9,0.1,1.7,0.2,2.5,0.3c1.9,0.3,3.7,0.9,5.4,2c0.3,0.3,0.5,0.5,0.5,0.9C22.4,11.7,21.6,14.7,19.7,17.5z"/>
	<path class="st1" d="M6.4,15.5c-0.6,0.7-1.2,1.3-1.8,2.1c-1.5-2.2-2.2-4.5-2.6-7.1C1.9,9.9,1.9,9.2,1.8,8.6C1.7,8,2,7.7,2.5,7.4
		c1.6-0.9,3.5-1.6,5.4-1.9c0,1.2-0.1,1.3-1.1,1.7c-2.8,1-2.5,0.5-2.2,3.5C4.8,12.4,5.5,14,6.4,15.5z"/>
	<path class="st1" d="M7.7,9c0.9,1.4,1.8,2.7,2.6,4c0.9,1.4,1.1,2.9,0.7,4.5c0,0.1-0.1,0.3-0.2,0.4c-2-1.6-3.3-3.5-4-5.9
		c-0.2-0.5-0.2-1-0.3-1.6C6.4,9.7,6.6,9.3,7.3,9.1C7.5,9.2,7.7,9.1,7.7,9z"/>
</g>
</svg>
