<?xml version="1.0" encoding="utf-8"?>
<!-- Generator: Adobe Illustrator 27.5.0, SVG Export Plug-In . SVG Version: 6.00 Build 0)  -->
<svg version="1.1" id="Laag_1" xmlns="http://www.w3.org/2000/svg" xmlns:xlink="http://www.w3.org/1999/xlink" x="0px" y="0px"
	 viewBox="0 0 24 24" style="enable-background:new 0 0 24 24;" xml:space="preserve">
<g id="layer1">
	<path id="icon" d="M2.3,2.8c0,0,0,0.8,0.1,1.3c0,0.1,0.1,0.5,0.1,0.8c0.2,1.9,0.4,3.7,0.4,3.9c0,0.1,0,0.4,0.1,0.5
		c0,0.2,0,0.3,0.1,0.4c0.1,0.1,0.1,0.4,0.2,1.8c0,0.5,0.1,1.1,0.1,1.3c0,0.5,0,0.9,0,0.9s0,0-0.1-0.1c0-0.1-0.1-0.2-0.3-0.2
		c-0.3,0-1.8,0-1.8,0s-0.1,0.3-0.1,0.5c0,0.3-0.1,0.5-0.1,0.5s-0.2,0.1-0.3,0.2c-0.2,0.1-0.4,0.2-0.5,0.3C0,15-0.1,15-0.1,15.1
		c0,0,0.3,0.2,0.7,0.4c0.8,0.4,0.8,0.4,0.8,0.7c0,0.1,0,0.2-0.1,0.3c-0.1,0.1-0.2,0.3-0.2,0.4C1,17,1,17.2,1,17.3v0.2H0.5
		c-0.6,0-0.7,0.1-0.2,0.1s20.9-0.1,21-0.1c0,0,0.1,0,0.1-0.1c0,0-0.3,0-1.1,0s-1.1,0-1.1,0s0.1-0.1,0.3-0.1c1.2-0.4,3.4-1.7,3.6-2.2
		c0.1-0.1,0.1-0.2,0.3-0.3c0.2-0.1,0.2-0.2,0.4-0.4c0.2-0.5,0.2-0.7-0.1-1.1C23.5,13.1,23.2,13,23,13c-0.1,0-0.4,0.1-0.8,0.1
		c-1.2,0.2-2.2,0.4-3.5,0.5c-0.4,0-0.8,0.1-0.9,0.1c-0.7,0.1-2.9,0.2-4.8,0.3c-1.9,0-7.7,0-7.8,0c-0.1,0-0.1-0.1-0.1-0.2
		c0-0.1,0-0.7-0.1-1.3C4.8,10,4.8,10.1,4.9,9.9C5,9.7,5,9.5,4.8,9.4C4.6,9.2,4.6,9.2,4,9.2S3.4,9.2,3.5,9c0.1-0.2-0.1-2.5-0.4-3.8
		C3.1,5,3,5.1,3,5.3c0.1,0.6,0.3,2.6,0.3,2.6s-0.1,0-0.2,0c-0.2,0-0.2,0-0.2-0.1c0,0,0-0.3-0.1-0.6C2.6,5.5,2.4,3,2.3,2.8
		C2.4,2.8,2.4,2.7,2.3,2.8z M4.6,10.4c0,0,0.1,0.1,0.1,0.2S4.5,10.8,4,10.7c-0.2,0-0.4-0.1-0.4-0.1s0,0,0.1-0.1
		c0.1-0.1,0.1-0.1,0.3-0.1c0.2,0,0.3,0,0.3-0.1c0.1,0,0.1-0.1,0.2-0.1C4.5,10.3,4.6,10.4,4.6,10.4z M4.5,10.9c0,0-0.1,0.1-0.1,0.3
		C4.3,11.4,4.2,11.7,4,12c-0.1,0.3-0.2,0.5-0.2,0.5s-0.1-0.4-0.1-0.9c0-0.3,0-0.6-0.1-0.6c0-0.1,0.2-0.2,0.6-0.2
		C4.4,10.9,4.5,10.9,4.5,10.9z M4.7,11.4c0,0.1,0,0.4,0.1,0.8c0,0.3,0.1,0.7,0.1,0.9v0.2H4.4H3.9v-0.1c0-0.2,0.3-1,0.5-1.5
		C4.6,11.2,4.7,11.1,4.7,11.4z M4.9,13.7c0,0.1,0,0.2,0,0.2s-0.2,0-0.4,0H4.1l-0.2-0.2c0,0,0-0.1,0-0.2c0,0,0.2,0,0.5,0h0.5V13.7z"
		/>
</g>
</svg>
