<?xml version="1.0" encoding="utf-8"?>
<!-- Generator: Adobe Illustrator 27.5.0, SVG Export Plug-In . SVG Version: 6.00 Build 0)  -->
<svg version="1.1" id="Laag_1" xmlns="http://www.w3.org/2000/svg" xmlns:xlink="http://www.w3.org/1999/xlink" x="0px" y="0px"
	 viewBox="0 0 24 24" style="enable-background:new 0 0 24 24;" xml:space="preserve">
<g id="layer1">
	<path id="icon" d="M4.7,3.7c0,1.6,0.1,3.2,0.1,4c0,0.5,0,0.9,0,0.9s-0.1,0-0.2,0c-0.2,0-0.2,0-0.2,0.1s0,0.1,0.2,0.1h0.2v0.3
		c0,0.1,0,0.3,0,0.3S4.6,9.2,4.4,9.1C4,8.7,4,8.6,4.2,8.6c0.1,0,0.1,0,0.1-0.1c0-0.1,0-0.1-0.1-0.1c-0.1,0-0.1,0-0.1,0s0-0.2,0-0.4
		c0-0.3,0-0.4,0.1-0.3c0.1,0,0.1,0.1,0.1,0.4c0,0.4,0.1,0.5,0.1,0.2c0-0.5-0.1-1.4-0.1-1.4s0,0.1,0,0.3c0,0.4,0,0.4-0.1,0.4
		c-0.1,0-0.1,0-0.1-0.3c0-0.2,0-0.3,0-0.3s0,0.1,0,0.3v0.3H4c-0.1,0-0.2,0-0.2-0.4c0-0.2,0-0.3,0-0.3s0,0.2,0,0.8
		c0,0.8,0.1,1.1,0.1,0.5c0-0.3,0-0.4,0.1-0.4s0.1,0.1,0.1,0.5v0.5H4c-0.1,0-0.1,0-0.1,0.2V8.9H4C4.1,8.9,4.2,9,4.1,9
		C4,9,3.9,9.1,3.9,9.2c0,0.1,0,0.1,0.1,0.1c0.1,0,0.1,0,0.1,0.1s0,0.6,0,1.1v0.9L4,11.5c-0.1,0.1-0.1,0.2-0.3,0.6
		c-0.1,0.3-0.2,0.6-0.2,0.7c0,0.1,0,0.3-0.1,0.6c0,0.4,0,0.5-0.1,0.5c0,0-0.1,0-0.1-0.1c0-0.1,0-0.1-0.1-0.1C3,13.8,3,13.8,3,13.9
		C3,14,3,14,2.9,14s-0.1,0.2,0,0.2S3,14.3,3,14.3s-0.7-0.1-1.2-0.1c-0.3-0.1-0.3-0.1-0.3,0.2v0.2H1.3c-0.1,0-0.3,0-0.4,0
		c-0.2,0-0.3,0-0.4,0.1c-0.5,0.1-0.6,0.6-0.3,1c0.1,0.2,0.3,0.2,0.5,0.3c0.2,0,0.2,0,0.2,0.1s0.1,0.2,0.5,0.5
		C1.6,16.8,1.9,17,1.9,17s-0.1,0-0.2,0c-0.1,0,4.4,0,10,0c6.1,0,10.2,0,10.2-0.1c0,0-0.1,0-0.2,0c-0.2,0-0.3,0-0.3,0
		s0.1-0.1,0.2-0.2c0.3-0.2,1.3-1.3,1.6-1.7c0.4-0.5,0.4-0.5,0.4-0.6c0-0.1,0-0.1,0.1-0.2c0.5-0.3,0.6-1,0.1-1.3
		c-0.2-0.1-0.4-0.1-1.4,0.1c-0.9,0.2-1.3,0.3-1.7,0.3c-0.1,0-0.4,0.1-0.5,0.1c-0.2,0-0.3,0-0.3,0s0-0.2,0-0.4v-0.4h-0.2h-0.2v0.4
		c0,0.6,0,0.6-0.2,0.6c-0.1,0-0.3,0-0.4,0.1c-0.3,0.1-0.9,0.1-0.9,0.1l-0.1-0.1c0-0.1,0-0.2-0.1-0.2c0-0.1,0-0.1,0-0.2
		c0-0.1,0-0.1-0.1,0c-0.1,0-0.4,0-0.4-0.1c0-0.2-0.1-0.2-2.8-0.3c-0.5,0-1.3-0.1-1.7-0.1c-0.8,0-0.8,0-0.9,0L11.8,13
		c0,0-0.4-0.3-0.9-0.8c-0.6-0.6-0.9-0.9-1-0.9c-0.1-0.1-0.3-0.1-0.5-0.1H9.1v-0.1c0-0.1,0-0.1,0.1-0.1s0.1,0,0.1-0.2
		c0-0.2,0-0.2-0.4-0.2c-0.2,0-0.3,0-0.3,0.1s0,0.2,0.1,0.2S8.8,11,8.8,11c0,0.1,0,0.1-0.2,0.1H8.4v-0.8c0-0.6,0-0.8-0.1-0.8
		c0,0,0,0.1,0,0.8c0,0.7,0,0.8,0,0.8c-0.1,0-0.1,0-0.2-0.1L8,10.9H7.6c-0.5,0-0.6,0-0.6,0.1c0,0.1-0.1,0.2-0.1,0.1c0,0,0-0.1,0-0.2
		c0-0.1-0.1-0.3-0.2-0.3c-0.1,0-0.2,0.2-0.2,0.3c0,0.1,0,0.2,0,0.2s-0.1-0.4-0.1-1.4c0-0.4,0-0.8-0.1-0.9c0-0.1,0,1.1,0,1.7
		c0,0.2,0,0.3,0,0.3c-0.1,0-0.5-1-0.5-1.1c0-0.1,0-0.1,0.1-0.1C6,9.6,6.1,9.4,6,9.3c0-0.1,0-0.1,0-0.1c0.1-0.1,0-0.4-0.1-0.4H5.8
		c0,0,0.2,0,0.4,0h0.4V8.7V8.6H5.8H5V8.5C5,8.4,4.9,7,4.8,4c0-0.4,0-0.8-0.1-0.8C4.7,3.1,4.7,3.3,4.7,3.7z M5.3,8.8
		C5.3,8.8,5.3,8.9,5.3,8.8C5.1,9,5.1,9,5.1,9.1c0,0.1,0,0.1-0.1,0.1c-0.1,0-0.1,0-0.1-0.2c0-0.3,0-0.3,0.2-0.3
		C5.2,8.8,5.3,8.8,5.3,8.8z M4.3,9.2c0.1,0.1,0.1,0.1,0.1,0.2s-0.1,0-0.1,0c-0.1,0-0.2,0-0.2-0.2C4.1,9,4.2,9,4.3,9.2z M4.9,9.7
		c0,0.1,0,0.2,0,0.2s-0.2,0-0.4,0H4.2V9.7c0-0.2,0-0.2,0.4-0.2h0.2L4.9,9.7z M5.4,9.8V10H5.2H5V9.8V9.6h0.2h0.2V9.8z M4.9,10.3
		C4.9,10.4,4.9,10.4,4.9,10.3v0.2C5,10.6,5,10.8,4.7,10.8c-0.1,0-0.1,0-0.1,0l0,0c-0.1,0.1-0.3,0.1-0.3,0.1s0-0.2,0-0.3v-0.3h0.2
		C4.8,10.2,4.9,10.2,4.9,10.3z M5.6,10.6c0.1,0.2,0.2,0.5,0.2,0.5l0,0c0,0-0.1-0.1-0.2-0.2c-0.1-0.1-0.2-0.2-0.2-0.2
		s-0.1,0.1-0.2,0.1H5v-0.2c0-0.1,0-0.2,0.1-0.2s0.1,0,0,0s-0.1-0.1,0-0.2c0,0,0.1,0,0.2,0h0.2L5.6,10.6z M3.9,11.9
		C3.9,11.9,3.9,12,3.9,11.9C3.9,12,3.9,12,3.9,11.9C3.8,12,3.8,12,3.9,11.9C3.8,11.9,3.9,11.8,3.9,11.9z M3.8,12.4
		C3.8,12.5,3.8,12.5,3.8,12.4C3.6,12.5,3.6,12.5,3.8,12.4C3.7,12.2,3.8,12.2,3.8,12.4z M3.7,12.7c0,0.1-0.1,0.3-0.1,0.3
		C3.5,13,3.5,13,3.7,12.7C3.6,12.7,3.6,12.7,3.7,12.7z M12.1,13.1C12.1,13.2,12.1,13.2,12.1,13.1c-0.3,0.1-0.4,0.1-0.3,0
		C11.8,13.1,11.9,13,12.1,13.1C12.1,13,12.1,13,12.1,13.1z M12.6,13C12.7,13,12.7,13,12.6,13C12.7,13.1,12.6,13.1,12.6,13
		c-0.2,0.1-0.3,0.1-0.3,0.1c0,0.1-0.1,0-0.1-0.1s0-0.1,0.1-0.1C12.4,13,12.6,13,12.6,13z M13.3,13.1c0,0,0,0-0.2,0
		c-0.2,0-0.4,0-0.4-0.1S13.3,13,13.3,13.1z M13.9,13.1c0,0.1-0.2,0.1-0.4,0c-0.2,0-0.1-0.1,0.1-0.1C13.8,13.1,13.9,13.1,13.9,13.1z
		 M14.4,13.1C14.4,13.1,14.5,13.1,14.4,13.1c0.1,0.1,0,0.1-0.2,0.1c-0.3,0-0.3,0-0.3-0.1C14,13.1,14.3,13.1,14.4,13.1z M15.1,13.1
		C15.1,13.1,15.2,13.2,15.1,13.1c0.1,0.1-0.5,0.1-0.5,0C14.5,13.1,14.9,13.1,15.1,13.1z M15.7,13.2c0,0,0,0.1-0.2,0.1
		c-0.2,0-0.4,0-0.4-0.1c0,0,0.1,0,0.3,0C15.6,13.1,15.7,13.1,15.7,13.2z M16.2,13.2c0.1,0.1,0,0.2-0.2,0.2s-0.4-0.1-0.3-0.2
		C15.8,13.1,16.2,13.2,16.2,13.2z M16.9,13.2C16.9,13.2,17,13.3,16.9,13.2c0.1,0.2,0.1,0.2-0.2,0.2c-0.1,0-0.3,0-0.3,0
		c-0.1,0-0.1-0.1-0.1-0.2C16.3,13.2,16.7,13.2,16.9,13.2z M3.5,13.5c0,0.1,0,0.4,0,0.4S3.4,13.5,3.5,13.5
		C3.5,13.5,3.5,13.5,3.5,13.5z M2,14.3c0,0,0,0.1,0,0.2v0.2H1.8c-0.3,0-0.3-0.1-0.3-0.2v-0.1h0.2C1.9,14.3,2,14.3,2,14.3z M2.5,14.4
		c0.1,0,0.1,0,0.1,0.2v0.1H2.4c-0.3,0-0.3,0-0.3-0.2c0-0.2,0-0.2,0.1-0.2C2.3,14.4,2.4,14.4,2.5,14.4z M2.9,14.4
		c0.1,0,0.1,0,0.1,0.2c0,0.1,0,0.1-0.1,0.1c-0.2,0-0.2,0-0.2-0.2C2.7,14.4,2.7,14.4,2.9,14.4z"/>
</g>
</svg>
