<?xml version="1.0" encoding="utf-8"?>
<!-- Generator: Adobe Illustrator 27.5.0, SVG Export Plug-In . SVG Version: 6.00 Build 0)  -->
<svg version="1.1" id="Laag_1" xmlns="http://www.w3.org/2000/svg" xmlns:xlink="http://www.w3.org/1999/xlink" x="0px" y="0px"
	 viewBox="0 0 24 24" style="enable-background:new 0 0 24 24;" xml:space="preserve">
<g id="layer1">
	<g>
		<g id="Ebene_1">
			<g>
				<rect x="0.1" y="9.6" width="12.3" height="1.9"/>
				<rect x="9.1" y="13.9" width="3" height="2.2"/>
				<path d="M18.9,13.5c-1.7,0-3.1,1.4-3.1,3c0,1.7,1.4,3.1,3.1,3.1s3-1.4,3-3.1C21.9,14.9,20.5,13.5,18.9,13.5z M18.9,18.2
					c-0.9,0-1.6-0.7-1.6-1.6c0-0.9,0.7-1.6,1.6-1.6s1.6,0.7,1.6,1.6C20.5,17.4,19.8,18.2,18.9,18.2z"/>
				<path d="M4.5,13.5c-1.7,0-3.1,1.4-3.1,3.1s1.4,3,3.1,3s3.1-1.4,3.1-3C7.5,14.8,6.2,13.5,4.5,13.5z M4.5,18.1
					c-0.9,0-1.6-0.7-1.6-1.6c0-0.9,0.7-1.6,1.6-1.6c0.9,0,1.6,0.7,1.6,1.6C6.1,17.4,5.4,18.1,4.5,18.1z"/>
				<path d="M23.5,14.1l0.3-2.2l-0.5-1.1l-4-1.2l-0.8-4.1c0,0-0.1-0.1-0.2-0.2V4.8c0.1,0,0.2,0,0.3,0c0-0.3-0.3-0.4-0.7-0.4
					s-0.6,0.1-0.6,0.4c0.1,0,0.2,0,0.3,0v0.4c-0.4,0-1.1,0-1.1,0h-3.8v3.3h-0.4V4.6l-1.1-0.7v0.6l0.5,0.3v4.5h0.6l0,0h0.4v2.8H0.3
					v0.3h0.4v0.8H0.4v1.4c0,0,0,0,0.5,0c-0.1,0.2-0.1,0.4-0.2,0.7c0,0.2-0.1,0.5-0.1,0.5h0.3c0.2-1.8,1.7-3.1,3.5-3.1
					c1.1,0,2.1,0.4,2.8,1.2C7.7,14.5,8,15.4,8,15.4h0.4v-2.2h4.4v3h2.5c0,0,0.1-0.5,0.1-0.6c0.1-0.3,0.2-0.7,0.4-1
					c0.3-0.4,0.9-1.2,1.3-1.5c0.3-0.2,0.8-0.2,1.1-0.2c0.5,0,1.1,0,1.7,0c0.2,0,0.5,0.1,0.8,0.2c0.3,0.2,0.5,0.6,0.5,0.6l1,1.7h0.9
					v0.5h1V14L23.5,14.1z M15,15.7h-1.6v-0.5H15V15.7z M15.4,14.5h-2.1V14h2.1V14.5z M16.8,9.5h-2.6c-0.2,0-0.4-0.2-0.4-0.4V6
					c0-0.2,0.2-0.4,0.4-0.4h2.6V9.5z M18.2,9.5h-1.1V5.6h0.6c0.2,0,0.3,0.1,0.4,0.3L18.6,9C18.6,9.3,18.5,9.5,18.2,9.5z M21,12.1
					h-0.7c-0.1,0-0.3-0.1-0.3-0.3v-1.2c0-0.2,0.2-0.3,0.3-0.3l0.7,0.2c0.1,0,0.2,0.1,0.2,0.2v1C21.2,12,21.1,12.1,21,12.1z"/>
			</g>
		</g>
	</g>
</g>
</svg>
