<?xml version="1.0" encoding="utf-8"?>
<!-- Generator: Adobe Illustrator 27.5.0, SVG Export Plug-In . SVG Version: 6.00 Build 0)  -->
<svg version="1.1" id="Laag_1" xmlns="http://www.w3.org/2000/svg" xmlns:xlink="http://www.w3.org/1999/xlink" x="0px" y="0px"
	 viewBox="0 0 24 24" style="enable-background:new 0 0 24 24;" xml:space="preserve">
<style type="text/css">
	.st0{fill-rule:evenodd;clip-rule:evenodd;}
	.st1{fill-rule:evenodd;clip-rule:evenodd;fill:#FEFEFE;}
	.st2{fill-rule:evenodd;clip-rule:evenodd;fill:#FFFFFF;}
	.st3{fill-rule:evenodd;clip-rule:evenodd;fill:#F9F9FD;}
	.st4{fill-rule:evenodd;clip-rule:evenodd;fill:#F8F8FC;}
	.st5{fill-rule:evenodd;clip-rule:evenodd;fill:#F5F5FC;}
	.st6{fill-rule:evenodd;clip-rule:evenodd;fill:#F3F4FA;}
	.st7{fill-rule:evenodd;clip-rule:evenodd;fill:#ECEDFB;}
	.st8{fill-rule:evenodd;clip-rule:evenodd;fill:#F7F7FD;}
	.st9{fill-rule:evenodd;clip-rule:evenodd;fill:#070707;}
	.st10{fill-rule:evenodd;clip-rule:evenodd;fill:#0606FC;}
	.st11{fill-rule:evenodd;clip-rule:evenodd;fill:#6565FB;}
</style>
<path class="st0" d="M23.6,8.7c-0.4,0.2-0.8,0.5-1.2,0.7c0,0,0,0-0.1,0l0,0c0,0,0,0-0.1,0l0,0c-0.2,0.1-0.4,0.2-0.5,0.3
	c-0.1,0-0.2,0.1-0.2,0.1c-0.1,0.1-0.2,0.1-0.3,0.2c-0.3,0.2-0.7,0.4-1,0.6c-0.3,0.2-0.7,0.4-1,0.6c-0.2,0.1-0.3,0.2-0.5,0.3
	c0,0,0,0-0.1,0c-0.2,0.1-0.4,0.2-0.6,0.3c0.2,0.1,0.4,0.2,0.5,0.3c0.2,0.1,0.3,0.2,0.5,0.3c0.1,0,0.1,0.1,0.2,0.1
	c0.1,0.1,0.3,0.2,0.4,0.2c0.2,0.1,0.3,0.2,0.5,0.3c0.2,0.1,0.4,0.2,0.6,0.3c0.2,0.1,0.3,0.2,0.5,0.3c0.2,0.1,0.4,0.2,0.6,0.3
	c0.4,0.2,0.7,0.4,1.1,0.7c0.2,0.1,0.3,0.2,0.5,0.3c0.1,0,0.1,0.1,0.1,0.1c0.1,0,0.1,0.1,0.2,0.1c0.1,0,0.1,0.1,0.2,0.1
	c-0.1,0.2-0.2,0.3-0.2,0.5c-0.1,0.1-0.2,0.3-0.2,0.4c-0.1,0.2-0.2,0.4-0.3,0.6C23.1,17,23,17.1,23,17.3c-0.1,0.2-0.3,0.4-0.4,0.6
	l0,0c0,0,0,0,0,0.1c-0.1,0.2-0.2,0.3-0.3,0.5c-0.1,0.2-0.2,0.3-0.3,0.5v0.1c-0.1,0.2-0.2,0.3-0.3,0.5c-0.2,0.3-0.4,0.7-0.6,1
	c-0.1,0-0.1,0-0.2-0.1l0,0c0,0,0,0-0.1,0c-0.2-0.1-0.3-0.2-0.5-0.3c-0.4-0.2-0.7-0.4-1.1-0.6L19,19.5c-0.5-0.3-1-0.5-1.4-0.8
	c-0.4-0.2-0.7-0.4-1.1-0.6c-0.1,0-0.2-0.1-0.3-0.1c-0.1,0-0.2-0.1-0.3-0.2c-0.2-0.1-0.3-0.2-0.5-0.2c-0.1-0.1-0.3-0.2-0.5-0.3
	c0,0.3,0,0.5,0,0.7c0,0.2,0,0.3,0,0.5c0,0.2,0,0.3,0,0.5s0,0.4,0,0.6c0,0.1,0,0.2,0,0.3c0,0.3,0,0.5,0,0.8c0,0.2,0,0.3,0,0.5
	s0,0.3,0,0.5s0,0.4,0,0.5c0,0.2,0,0.4,0,0.6c0,0.2,0,0.3,0,0.5c0,0.2,0,0.3,0,0.5c0,0.1-0.1,0.1-0.1,0.2c-0.1,0-0.3,0-0.4,0h-0.1
	c-0.2,0-0.4,0-0.6,0c-0.1,0-0.3,0-0.4,0h-0.1c-0.2,0-0.3,0-0.5,0c-0.2,0-0.3,0-0.5,0c-0.2,0-0.4,0-0.5,0c-0.1,0-0.4,0-0.5,0
	c-0.2,0-0.3,0-0.5,0c-0.2,0-0.3,0-0.5,0c-0.2,0-0.4,0-0.6,0c-0.2,0-0.3,0-0.5,0H8.9l0,0c0,0,0,0,0-0.1v-0.1c0-0.2,0-0.3,0-0.5
	c0-0.2,0-0.3,0-0.5c0-0.2,0-0.4,0-0.6c0-0.2,0-0.3,0-0.5s0-0.3,0-0.5s0-0.4,0-0.5c0-0.2,0-0.3,0-0.5c0-0.2,0-0.3,0-0.5
	c0-0.2,0-0.4,0-0.5c0-0.2,0-0.3,0-0.5s0-0.4,0-0.6s0-0.3,0-0.5c0,0,0,0,0-0.1c0,0,0-0.1,0-0.2c-0.2,0.1-0.3,0.2-0.5,0.3
	c-0.2,0.1-0.5,0.3-0.7,0.4l-0.1,0.1c0,0,0,0-0.1,0l0,0l0,0l0,0c0,0,0,0-0.1,0l0,0c-0.4,0.2-0.7,0.4-1.1,0.6c-0.5,0.3-1,0.6-1.6,0.9
	c-0.4,0.2-0.7,0.4-1.1,0.6c-0.2,0.1-0.3,0.2-0.5,0.3c0,0-0.1,0-0.1,0.1l0,0c-0.1-0.1-0.1-0.1-0.2-0.2c-0.2-0.3-0.3-0.6-0.5-0.8
	c-0.1-0.2-0.2-0.4-0.3-0.5c-0.2-0.3-0.4-0.6-0.5-0.9c0-0.1,0-0.1-0.1-0.2c-0.1-0.2-0.2-0.4-0.3-0.5c0-0.1-0.1-0.1-0.1-0.2
	c-0.1-0.1-0.1-0.2-0.2-0.3c-0.2-0.4-0.4-0.7-0.6-1.1c-0.1-0.2-0.2-0.3-0.2-0.5c0.2-0.1,0.3-0.2,0.5-0.3c0.1-0.1,0.3-0.2,0.4-0.3
	c0.1-0.1,0.2-0.1,0.3-0.2h0.1c0.2-0.1,0.3-0.2,0.5-0.3C1.8,14.1,2,14.1,2.1,14c0.1,0,0.1-0.1,0.2-0.1c0.3-0.1,0.5-0.3,0.8-0.5
	c0.4-0.2,0.7-0.4,1.1-0.6c0.1-0.1,0.3-0.2,0.4-0.3h0.1c0.4-0.2,0.7-0.4,1.1-0.6c-0.2-0.1-0.4-0.2-0.6-0.3c-0.1-0.1-0.2-0.1-0.4-0.2
	c0,0,0,0-0.1,0l-0.1-0.1l-0.1-0.1c-0.1-0.1-0.3-0.1-0.4-0.2l0,0c-0.2-0.1-0.3-0.2-0.5-0.3c-0.1-0.1-0.3-0.1-0.4-0.2
	c-0.2-0.1-0.4-0.3-0.6-0.4c-0.1,0-0.1-0.1-0.2-0.1C2.3,9.9,2.2,9.9,2.1,9.8C1.9,9.7,1.7,9.6,1.5,9.5c-0.1,0-0.2-0.1-0.3-0.1
	C1.1,9.3,1.1,9.3,1,9.3C0.8,9.2,0.7,9.1,0.5,9C0.4,8.9,0.2,8.8,0.1,8.7C0,8.6,0,8.6,0,8.5c0.1-0.2,0.2-0.4,0.3-0.6
	c0-0.1,0.1-0.1,0.1-0.2C0.6,7.3,0.7,7,0.9,6.7l0,0C1,6.5,1.1,6.4,1.2,6.2c0.2-0.4,0.4-0.7,0.6-1.1C1.9,4.9,1.9,4.8,2,4.6
	c0.1-0.2,0.3-0.3,0.4-0.5c0.1-0.2,0.3-0.5,0.4-0.7C2.9,3.3,2.9,3.3,3,3.3c0.3,0.2,0.7,0.4,1,0.6c0.4,0.2,0.7,0.4,1.1,0.6
	c0,0,0.1,0,0.1,0.1c0.1,0.1,0.2,0.1,0.3,0.2C6,5,6.4,5.3,6.8,5.5c0.3,0.2,0.7,0.4,1,0.6c0.1,0.1,0.3,0.1,0.4,0.2
	c0.2,0.1,0.4,0.2,0.6,0.4c0-0.2,0-0.3,0-0.5s0-0.3,0-0.5s0-0.3,0-0.5s0-0.4,0-0.5c0-0.2,0-0.3,0-0.5c0-0.2,0-0.4,0-0.5
	c0-0.2,0-0.3,0-0.5c0-0.2,0-0.3,0-0.5s0-0.3,0-0.5c0-0.1,0-0.2,0-0.3c0-0.1,0-0.2,0-0.2c0-0.2,0-0.3,0-0.5s0-0.3,0-0.5s0-0.3,0-0.5
	c1.3,0,2.6,0,3.9,0c0.7,0,1.5,0,2.2,0c0,0.2,0,0.3,0,0.5s0,0.4,0,0.5c0,0.2,0,0.3,0,0.5s0,0.4,0,0.6c0,0.2,0,0.3,0,0.5s0,0.4,0,0.5
	s0,0.3,0,0.5s0,0.4,0,0.5c0,0.2,0,0.3,0,0.5s0,0.4,0,0.5c0,0.2,0,0.3,0,0.5s0,0.4,0,0.5c0,0.1,0,0.3,0,0.5c0.2-0.1,0.5-0.3,0.7-0.4
	c0.1,0,0.2-0.1,0.3-0.1c0.2-0.1,0.4-0.2,0.6-0.3l0,0c0.1-0.1,0.3-0.2,0.4-0.2c0.6-0.3,1.1-0.6,1.7-1c0.3-0.2,0.7-0.4,1.1-0.6
	c0.3-0.2,0.7-0.4,1-0.6c0.1,0,0.1,0,0.2-0.1c0.1,0.1,0.1,0.2,0.2,0.3c0,0.1,0.1,0.2,0.1,0.3c0,0.1,0.1,0.1,0.1,0.2
	c0.1,0.2,0.2,0.3,0.3,0.5C21.9,5,22,5.1,22.1,5.3c0.2,0.4,0.4,0.7,0.6,1.1c0.1,0.2,0.2,0.3,0.3,0.4l0,0c0.2,0.3,0.3,0.6,0.5,0.9l0,0
	c0,0.1,0.1,0.2,0.1,0.2c0.1,0.2,0.2,0.4,0.3,0.6C23.8,8.6,23.6,8.6,23.6,8.7z M10.4,8.1L10.4,8.1L10.4,8.1
	C10.4,8.2,10.4,8.2,10.4,8.1C10.4,8.2,10.4,8.2,10.4,8.1c0.1,0.1,0.1,0.1,0.1,0.1c0.3,0.2,0.5,0.4,0.8,0.6h0.1c0,0,0,0,0.1,0
	c0,0.3,0,0.6,0,0.8c0,0.8,0,1.6,0,2.5c0,0,0,0-0.1,0c0-0.1,0-0.3,0-0.4c-0.1,0.1-0.1,0.1-0.2,0.2L11.1,12c-0.1,0.1-0.2,0.3-0.3,0.4
	c0,0,0,0.1-0.1,0.1l0,0c0,0,0,0,0,0.1c0,0.1,0,0.1-0.1,0.2v0.1c0,0.2,0,0.4,0,0.6c0,0.6,0.3,1,0.9,1.2c0,0,0,0,0.1,0
	c0,0.8,0,1.6,0.1,2.4h-0.1c-0.2,0.2-0.4,0.4-0.5,0.7c-0.1,0.5,0.1,1,0.5,1.3h0.1c0,0,0,0,0.1,0c0,0.7,0,1.3,0.1,2v0.1
	c0,0.2,0,0.4,0,0.5l0,0l0,0v0.1l0,0c0,0,0,0,0,0.1H12h0.1c0.2-0.2,0.2-0.3,0.1-0.5l0,0v-0.1c0.1-0.2,0.3-0.3,0.4-0.5
	c0.2-0.4,0.1-0.9-0.1-1.3c0,0-0.1-0.1-0.1-0.2c0,0.3,0,0.6,0,0.8c0,0.1-0.1,0.3-0.1,0.4v-0.1c0-0.6,0.1-1.3,0.1-1.9v-0.1
	c0-0.6,0-1.1,0-1.7h0.1c0,0.1,0,0.2,0,0.4c0.1-0.1,0.2-0.2,0.2-0.3c0.3-0.5,0.4-1,0.4-1.5c0-0.4-0.2-0.7-0.5-0.9h-0.1
	c0-0.4,0-0.7,0-1.1v-0.1c0-0.7,0-1.3,0.1-2h0.1c0,0.2,0,0.4,0,0.6l0,0l0,0c0.5-0.5,0.9-1,1.1-1.7c0.1-0.8-0.3-1.6-1-1.9
	c0,0.1,0,0.2,0,0.3c0,0,0,0-0.1,0c0-0.1,0-0.2,0-0.4c0,0,0,0,0-0.1c0-1.2,0-2.5,0.1-3.7c0-0.1,0-0.3,0-0.4c0-0.2,0-0.5,0-0.7
	c0-0.1,0-0.2,0-0.2c0-0.1,0-0.2,0-0.3V2.5c-0.1-0.2-0.2-0.4-0.2-0.6c0,0,0,0-0.1,0l0,0c-0.1,0-0.1,0-0.2-0.1c-0.2,0-0.4,0.1-0.6,0.1
	L11.6,2c0,0.1-0.1,0.2-0.1,0.3c0,0,0,0,0,0.1c0,0.2,0,0.4,0,0.7l0,0l0,0c0,0.1,0,0.2,0,0.3l0,0c0,0,0,0,0,0.1c-0.4,0-0.7,0.1-1,0.3
	c0,0,0,0-0.1,0l0,0c0,0-0.1,0-0.1,0.1C10.2,4,10.2,4,10.1,4.1L10,4.2C9.7,4.7,9.6,5.3,9.7,5.9l0,0l0,0C9.7,6.9,9.9,7.4,10.4,8.1
	C10.3,8,10.3,8.1,10.4,8.1z"/>
<path class="st1" d="M11.6,17.2c0-0.8,0-1.6-0.1-2.4c0-0.7,0-1.3,0-2c0,0-0.1,0-0.1-0.1v-0.1l0.1-0.1l0,0c0-0.1,0-0.1,0-0.2v-0.1
	c0-0.8,0-1.6,0-2.5c0-0.3,0-0.6,0-0.8c0-0.5,0-0.9,0-1.4c0,0,0,0,0.1,0c0,0,0,0-0.1,0c0-0.8,0-1.6-0.1-2.3c0.1,0,0.2,0,0.3,0
	c0.3-0.1,0.5-0.3,0.8-0.4h0.1c0,1.2,0,2.5-0.1,3.7c0,0,0,0,0,0.1s0,0.2,0,0.4c0,0.3,0,0.6,0,0.9c0,0.4,0,0.8,0,1.3
	c0,0.1,0,0.3,0,0.4c0,0.7,0,1.3-0.1,2v0.1c0,0.4,0,0.7,0,1.1c0,0.8,0,1.6-0.1,2.3c0,0.6,0,1.1,0,1.7l-0.1,0.1h0.1
	c0,0.6-0.1,1.3-0.1,1.9v0.1l0,0L12.1,21c-0.1,0.1-0.1,0.3-0.2,0.4c-0.1,0-0.1,0-0.2,0c0-0.7,0-1.3-0.1-2c0-0.1,0-0.3,0-0.4
	C11.6,18.3,11.6,17.8,11.6,17.2z"/>
<path class="st2" d="M11.7,4.9c-0.1,0-0.2,0-0.3,0c-0.2,0-0.3,0-0.5-0.1c-0.2,0-0.3,0-0.3,0.2c-0.2,0.9,0.1,1.6,0.7,2.3
	c0.1,0.1,0.1,0.2,0.1,0.3c0,0.3,0,0.7,0,1h-0.1c-0.3-0.2-0.5-0.4-0.8-0.6c0,0,0,0-0.1-0.1l0,0l0,0c0,0,0-0.1-0.1-0.1l0,0
	c0,0,0,0,0-0.1C9.9,7.2,9.7,6.7,9.6,6l0,0c-0.1-0.6,0-1.2,0.3-1.7L10,4.2c0.1-0.1,0.1-0.1,0.2-0.2c0,0,0.1,0,0.1-0.1l0,0
	c0,0,0,0,0.1,0c0.3-0.2,0.6-0.3,1-0.3c0.1,0.1,0.3,0.1,0.4,0.2c0,0,0,0,0-0.1l-0.1-0.1c0.1-0.1,0.2-0.1,0.2,0L12,3.7
	c0.2,0,0.4,0.1,0.6,0.1c0,0.1,0,0.3,0,0.4h-0.1h-0.1c-0.1,0-0.2,0.1-0.3,0.1c-0.1,0.1-0.2,0.1-0.3,0.2C11.7,4.9,11.7,4.9,11.7,4.9z"
	/>
<path class="st3" d="M12.6,11.9c0-0.2,0-0.4,0-0.6c0-0.1,0-0.2,0-0.3c0-0.2,0-0.5,0-0.8c0,0,0,0,0-0.1c0-0.2,0-0.4,0-0.6
	c0-0.3,0-0.6,0-0.9c0-0.1,0-0.2,0-0.3c0.7,0.2,1.2,1.1,1,1.9C13.6,11,13.1,11.5,12.6,11.9C12.6,12,12.6,11.9,12.6,11.9z"/>
<path class="st1" d="M12.7,4.1C12.5,4.1,12.2,4,12,4l-0.1-0.1c-0.1-0.2-0.2-0.1-0.2,0l0,0c0,0,0,0-0.1,0c0,0-0.1,0-0.1-0.1h-0.1
	c0-0.1,0-0.2,0-0.3l0,0c0-0.2,0-0.5,0-0.7c0,0,0,0,0-0.1s0.1-0.2,0.1-0.3l0.1-0.1c0.2,0,0.4-0.1,0.6-0.1c0,0.1,0.1,0.1,0.1,0.2
	l0.1-0.1l0,0c0,0,0,0,0.1,0c0.1,0.2,0.2,0.4,0.2,0.6V3c0,0.1,0,0.2,0,0.3s0,0.2,0,0.2C12.7,3.6,12.7,3.9,12.7,4.1z"/>
<path class="st0" d="M11.4,8.8c0-0.3,0-0.7,0-1c0-0.1-0.1-0.3-0.1-0.3c-0.6-0.7-0.9-1.4-0.7-2.3c0-0.2,0.1-0.2,0.3-0.2
	c0.2,0,0.3,0,0.5,0.1c0,0.8,0,1.6,0.1,2.3v0.1C11.4,7.9,11.4,8.4,11.4,8.8L11.4,8.8z"/>
<path class="st4" d="M11.4,12.6C11.4,12.6,11.4,12.7,11.4,12.6c0,0.7,0,1.4,0,2.1c-0.5-0.2-0.8-0.7-0.9-1.2c0-0.2,0-0.4,0-0.6v-0.1
	c0-0.1,0-0.1,0.1-0.2c0,0,0,0,0-0.1l0,0c0,0,0-0.1,0.1-0.1c0.1-0.1,0.2-0.3,0.3-0.4l0.1-0.1c0.1,0,0.1-0.1,0.2-0.2
	c0,0.2,0,0.3,0,0.4v0.1C11.4,12.4,11.4,12.5,11.4,12.6z"/>
<path class="st5" d="M12.6,14.5c0.3,0.2,0.4,0.5,0.5,0.9c0.1,0.6-0.1,1.1-0.4,1.5c-0.1,0.1-0.1,0.2-0.2,0.3c0-0.2,0-0.3,0-0.4
	c0-0.7,0-1.4,0.1-2.1C12.5,14.7,12.6,14.6,12.6,14.5z"/>
<path class="st6" d="M11.6,19.3h-0.1c-0.4-0.4-0.6-0.8-0.5-1.3c0.1-0.3,0.3-0.5,0.5-0.7c0,0.1,0.1,0.1,0.1,0.2c0,0.5,0,0.9,0,1.4
	C11.6,19,11.6,19.2,11.6,19.3z"/>
<path class="st7" d="M12.2,20.8c0-0.1,0.1-0.3,0.1-0.4c0-0.2,0-0.5,0-0.8c0.1,0.1,0.1,0.1,0.1,0.2c0.2,0.4,0.3,0.8,0.1,1.3
	c-0.1,0.2-0.3,0.3-0.4,0.5c0-0.1-0.1-0.1-0.1-0.2C12.1,21.1,12.2,21,12.2,20.8C12.2,20.9,12.2,20.8,12.2,20.8L12.2,20.8z"/>
<path class="st1" d="M11.9,22.1C11.9,22.1,11.8,22.1,11.9,22.1C11.8,22.1,11.8,22.1,11.9,22.1c-0.1-0.1-0.1-0.2-0.1-0.2l0,0
	c0-0.2,0-0.4,0-0.5c0.1,0,0.1,0,0.2,0v0.1c0,0,0.1,0,0.1,0.1h0.1l0,0c0,0.2-0.1,0.4-0.1,0.5C12,22.2,12,22.2,11.9,22.1
	C11.9,22.2,11.9,22.2,11.9,22.1z"/>
<path class="st0" d="M12.6,14.5c0,0.1,0,0.2,0,0.2c0,0.7,0,1.4-0.1,2.1h-0.1c0-0.8,0-1.6,0.1-2.3C12.5,14.5,12.6,14.5,12.6,14.5z"/>
<path class="st0" d="M11.5,14.7c0-0.7,0-1.3,0-2c0,0,0.1,0,0.1,0.1C11.5,13.4,11.6,14.1,11.5,14.7L11.5,14.7z"/>
<path class="st0" d="M11.6,18.9c0-0.5,0-0.9,0-1.4c0-0.1,0-0.1-0.1-0.2h0.1C11.6,17.8,11.6,18.3,11.6,18.9L11.6,18.9z"/>
<path class="st0" d="M12.2,21.6h-0.1c0,0,0,0-0.1-0.1v-0.1v-0.1c0.1-0.1,0.1-0.3,0.2-0.4c0,0,0,0,0.1,0c0,0.1-0.1,0.2-0.1,0.4
	C12.1,21.3,12.1,21.4,12.2,21.6C12.2,21.5,12.2,21.5,12.2,21.6z"/>
<path class="st0" d="M12.7,8.7c0,0.3,0,0.6,0,0.9h-0.1C12.6,9.3,12.6,9,12.7,8.7C12.6,8.7,12.7,8.7,12.7,8.7z"/>
<path class="st8" d="M12.1,22.1c0-0.2,0.1-0.4,0.1-0.5C12.3,21.8,12.3,22,12.1,22.1z"/>
<path class="st0" d="M11.6,3.9L11.6,3.9C11.7,4,11.7,4,11.7,4s0,0,0,0.1C11.6,4,11.4,4,11.3,3.9c0,0,0,0,0-0.1c0,0,0,0,0.1,0
	C11.4,3.8,11.5,3.8,11.6,3.9C11.5,3.9,11.6,3.9,11.6,3.9z"/>
<path class="st0" d="M11.6,18.9L11.6,18.9c0.1,0.1,0.1,0.3,0.1,0.4c0,0,0,0-0.1,0C11.6,19.2,11.6,19,11.6,18.9z"/>
<path class="st9" d="M12.6,11c0,0.1,0,0.2,0,0.3c0,0,0,0-0.1,0c0-0.1,0-0.3,0-0.4C12.6,10.9,12.6,10.9,12.6,11z"/>
<path class="st8" d="M12.3,2.2l-0.1,0.1c0-0.1-0.1-0.1-0.1-0.2C12.2,2.1,12.2,2.2,12.3,2.2z"/>
<path class="st8" d="M12.7,3.4c0-0.1,0-0.2,0-0.2C12.8,3.3,12.7,3.3,12.7,3.4z"/>
<path class="st8" d="M11.9,21.3L11.9,21.3c-0.1,0.1-0.1,0.1-0.2,0.1v-0.1C11.8,21.3,11.9,21.3,11.9,21.3z"/>
<path class="st8" d="M12.3,18.8C12.2,18.8,12.2,18.8,12.3,18.8c-0.1-0.1,0-0.1,0-0.1V18.8z"/>
<path class="st10" d="M11.2,11.9L11.1,12C11.2,11.9,11.2,11.9,11.2,11.9z"/>
<path class="st0" d="M11.4,12.3v-0.1c0,0,0,0,0.1,0C11.5,12.2,11.5,12.2,11.4,12.3C11.5,12.3,11.5,12.3,11.4,12.3z"/>
<path class="st10" d="M11.5,2.2l-0.1,0.1C11.5,2.3,11.5,2.2,11.5,2.2z"/>
<path class="st10" d="M10.8,12.4L10.8,12.4L10.8,12.4z"/>
<path class="st10" d="M10,4.4L9.9,4.5C9.9,4.5,10,4.5,10,4.4z"/>
<path class="st8" d="M12.5,13.4v-0.1V13.4z"/>
<path class="st10" d="M10.4,8.2C10.4,8.2,10.5,8.2,10.4,8.2C10.5,8.2,10.4,8.2,10.4,8.2z"/>
<path class="st10" d="M10.2,4.2C10.2,4.2,10.2,4.3,10.2,4.2C10.2,4.3,10.2,4.2,10.2,4.2z"/>
<path class="st8" d="M11.9,22.1C11.9,22.2,11.9,22.2,11.9,22.1C11.9,22.2,11.9,22.2,11.9,22.1z"/>
<path class="st10" d="M10.4,8.1L10.4,8.1L10.4,8.1z"/>
<path class="st11" d="M12.6,8.4C12.6,8.3,12.6,8.3,12.6,8.4C12.6,8.3,12.6,8.3,12.6,8.4z"/>
<path class="st10" d="M10.3,8C10.3,8,10.3,8.1,10.3,8C10.3,8.1,10.3,8,10.3,8z"/>
<path class="st8" d="M11.8,22.1L11.8,22.1L11.8,22.1z"/>
<path class="st8" d="M11.8,21.9L11.8,21.9L11.8,21.9L11.8,21.9z"/>
<path class="st8" d="M11.4,3.8L11.4,3.8C11.3,3.8,11.3,3.8,11.4,3.8C11.3,3.8,11.4,3.8,11.4,3.8z"/>
<path class="st10" d="M10.8,12.5C10.8,12.5,10.7,12.6,10.8,12.5C10.7,12.6,10.8,12.5,10.8,12.5z"/>
<path class="st10" d="M10.3,4.2L10.3,4.2L10.3,4.2z"/>
<path class="st10" d="M10.7,12.7C10.7,12.8,10.7,12.8,10.7,12.7C10.7,12.8,10.7,12.8,10.7,12.7z"/>
<path class="st0" d="M11.3,3.4L11.3,3.4L11.3,3.4L11.3,3.4z"/>
<path class="st11" d="M12.6,11.9C12.6,11.9,12.6,12,12.6,11.9C12.6,12,12.6,12,12.6,11.9C12.6,12,12.6,11.9,12.6,11.9z"/>
<path class="st8" d="M12.5,2.3C12.5,2.2,12.5,2.2,12.5,2.3C12.5,2.2,12.5,2.2,12.5,2.3z"/>
<path class="st8" d="M11.3,2.6C11.3,2.6,11.3,2.7,11.3,2.6C11.3,2.7,11.3,2.6,11.3,2.6z"/>
<path class="st10" d="M12.8,2.9L12.8,2.9L12.8,2.9z"/>
<path class="st0" d="M11.7,4.9V4.8c0.1-0.1,0.2-0.1,0.3-0.2c0.1,0,0.2-0.1,0.3-0.1h0.1C12.2,4.6,11.9,4.8,11.7,4.9z"/>
<path class="st0" d="M12.6,11c0,0,0-0.1-0.1-0.1c0-0.4,0-0.8,0-1.3c0,0,0,0,0.1,0c0,0.2,0,0.4,0,0.6c0,0,0,0,0,0.1
	C12.6,10.5,12.6,10.7,12.6,11z"/>
<path class="st0" d="M11.4,12.3C11.5,12.3,11.5,12.3,11.4,12.3c0.1,0.1,0.1,0.1,0.1,0.2l0,0l0,0l-0.1,0.1
	C11.4,12.5,11.4,12.4,11.4,12.3z"/>
<path class="st8" d="M11.4,7.4C11.4,7.3,11.4,7.3,11.4,7.4C11.4,7.3,11.5,7.3,11.4,7.4C11.5,7.3,11.4,7.3,11.4,7.4z"/>
<path class="st0" d="M12.2,20.9L12.2,20.9C12.2,20.9,12.2,20.8,12.2,20.9C12.2,20.8,12.2,20.9,12.2,20.9z"/>
<path class="st11" d="M11.5,12.5L11.5,12.5L11.5,12.5L11.5,12.5z"/>
<path class="st11" d="M12.6,10.2C12.6,10.2,12.7,10.2,12.6,10.2C12.7,10.2,12.6,10.2,12.6,10.2z"/>
<path class="st8" d="M11.6,3.9C11.6,3.9,11.5,3.8,11.6,3.9C11.5,3.9,11.6,3.9,11.6,3.9z"/>
<path class="st8" d="M12,21.5L12,21.5L12,21.5z"/>
</svg>
