<?xml version="1.0" encoding="utf-8"?>
<!-- Generator: Adobe Illustrator 27.5.0, SVG Export Plug-In . SVG Version: 6.00 Build 0)  -->
<svg version="1.1" id="Laag_1" xmlns="http://www.w3.org/2000/svg" xmlns:xlink="http://www.w3.org/1999/xlink" x="0px" y="0px"
	 viewBox="0 0 24 24" style="enable-background:new 0 0 24 24;" xml:space="preserve">
<style type="text/css">
	.st0{stroke:#000000;stroke-width:0.25;stroke-miterlimit:10;}
</style>
<path class="st0" d="M18.1,17.6c-0.2-0.1-0.3-0.3-0.4-0.4l0,0c-0.3-0.5-0.4-1.6-0.5-2.3c0-0.1,0-0.2,0-0.3l0,0
	c-0.2-1.1-0.5-2.6-1.5-3.8c-0.6-0.9-1.4-1.5-2.4-1.8c-0.1-0.7-0.7-1.2-1.4-1.2c-0.7,0-1.3,0.5-1.4,1.2c-0.9,0.3-1.7,0.9-2.4,1.8
	c-0.9,1.3-1.3,2.8-1.5,3.8l0,0l0,0c0,0.1,0,0.2,0,0.3c-0.1,0.7-0.2,1.9-0.5,2.4l0,0c-0.1,0.1-0.2,0.3-0.4,0.4
	c-0.4,0.4-1.3,1.1-0.6,2.4c0.1,0.3,0.4,0.4,0.7,0.4h12.1c0.3,0,0.6-0.2,0.7-0.4C19.4,18.8,18.5,18,18.1,17.6z"/>
<path class="st0" d="M13.3,21.8h-2.8c-0.1,0-0.2,0.1-0.3,0.1c-0.1,0.2-0.1,0.4,0,0.5l0,0c0.2,0.9,0.9,1.5,1.8,1.5s1.7-0.7,1.8-1.6
	l0,0c0-0.1,0.1-0.3-0.1-0.4C13.6,21.9,13.5,21.8,13.3,21.8z"/>
<path class="st0" d="M7,2.5c-0.1-0.6-0.6-1-1.2-0.9c-1.6,0.3-3,1-4.1,2.2C0.7,5,0.1,6.5,0,8.1c0,0.6,0.4,1.1,1,1.1c0,0,0,0,0.1,0
	c0.5,0,1-0.4,1-1c0.1-1.1,0.5-2.2,1.2-3C4.1,4.4,5,3.8,6.2,3.6C6.7,3.6,7.1,3,7,2.5z"/>
<path class="st0" d="M5.7,9.7c0-0.6,0.3-1.1,0.7-1.6c0.4-0.4,0.9-0.7,1.5-0.8c0.6-0.1,1-0.6,0.9-1.2c-0.1-0.6-0.6-1-1.2-0.9
	c-1.1,0.2-2,0.7-2.7,1.5S3.8,8.5,3.7,9.6c0,0.6,0.4,1.1,1,1.1c0,0,0,0,0.1,0C5.2,10.7,5.7,10.2,5.7,9.7z"/>
<path class="st0" d="M24,8.1c-0.1-1.6-0.7-3.1-1.8-4.2c-1.1-1.2-2.5-2-4.1-2.2C17.5,1.6,17,2,16.9,2.6c-0.1,0.6,0.3,1.1,0.9,1.2
	c1.1,0.2,2.1,0.7,2.9,1.6c0.7,0.8,1.2,1.9,1.2,3c0,0.6,0.5,1,1,1c0,0,0,0,0.1,0C23.6,9.2,24,8.7,24,8.1z"/>
<path class="st0" d="M19.1,6.7c-0.7-0.8-1.7-1.3-2.7-1.5c-0.6-0.1-1.2,0.3-1.3,0.9s0.3,1.1,0.9,1.2c0.6,0.1,1.1,0.4,1.5,0.8
	c0.4,0.4,0.6,1,0.7,1.6c0,0.6,0.5,1,1,1c0,0,0,0,0.1,0c0.6,0,1-0.5,1-1.1C20.2,8.5,19.8,7.5,19.1,6.7z"/>
</svg>
