<?xml version="1.0" encoding="utf-8"?>
<!-- Generator: Adobe Illustrator 27.5.0, SVG Export Plug-In . SVG Version: 6.00 Build 0)  -->
<svg version="1.1" id="Laag_1" xmlns="http://www.w3.org/2000/svg" xmlns:xlink="http://www.w3.org/1999/xlink" x="0px" y="0px"
	 viewBox="0 0 24 24" style="enable-background:new 0 0 24 24;" xml:space="preserve">
<g id="layer1">
	<path id="icon" d="M8.4,7.3c0,0.3,0,0.5,0,0.3s0-0.4,0-0.6C8.4,6.9,8.4,7,8.4,7.3 M7.7,8c0,0.1,0,0.1-0.1,0.1H7.5
		c-0.1,0-0.1,0.1,0,0.2c0,0,0.1,0.1,0.1,0.2c0,0.1,0,0.2,0.1,0.2c0.1,0.1,0.1,0.1,0.1,0.4c0,0.2,0,0.4,0,0.4C7.9,9.6,8,9.7,8.2,9.7
		c0.1,0,0.2,0,0.2,0c0,0.1,0.3,0.9,0.3,0.9s-0.1,0-0.2,0.1c-0.2,0-0.4,0.2-0.4,0.3c0,0,0,0.1-0.1,0.2c0,0.1-0.1,0.2-0.1,0.1
		c-0.2,0-0.2,0.1-0.3,0.4s-0.1,0.4,0.1,0.5c0.1,0,0.1,0,0.1,0.5v0.5H7.2c-0.5,0-0.6,0-0.6-0.1c0,0,0-0.1-0.1-0.1c0,0-0.1,0,0-0.1
		v-0.1c0-0.1,0-0.1,0.3-0.1c0.2,0,0.2,0,0.2,0s0-0.1,0-0.2v-0.1H6.6c-0.4,0-0.4,0-0.5-0.2c0-0.1,0-0.2-0.2-0.1H5.8l-0.1-0.2
		c-0.1-0.1-0.1-0.2-0.1-0.2s0,0.1,0.1,0.3c0.1,0.1,0.2,0.4,0.2,0.6C6,12.8,6,12.9,6.1,13c0.1,0.1,0.1,0.2,0.1,0.2s0,0,0,0.1v0.1H5.7
		c-0.5,0-0.5,0-0.5-0.1c0,0,0-0.1-0.1-0.1s-0.1,0,0-0.1c0,0,0.1,0,0.1-0.1s0-0.1,0.2-0.1s0.2,0,0.2-0.1c0,0,0-0.1,0-0.2v-0.1H5.2
		c-0.2,0-0.4,0-0.4,0s-0.1-0.1-0.1-0.2c0-0.2,0-0.2-0.2-0.2c-0.1,0-0.1,0-0.2-0.3C4,11.6,4,11.5,4,11.6c0,0,0,0.2,0.1,0.3
		c0.1,0.1,0.1,0.4,0.2,0.5c0,0.2,0.1,0.3,0.1,0.3l0.1,0.1c0,0.1,0,0.1,0,0.1S4.4,13,4.5,13c0,0,0,0.1-0.2,0.1c-0.1,0-0.3,0-0.3,0
		H3.9v-0.2c0-0.2,0-0.2-0.3-0.4c-0.2-0.1-0.3-0.3-0.4-0.3c-0.1,0-0.4-0.1-0.6,0H2.5v0.4c0,0.4,0,0.4-0.1,0.4s-0.1,0,0,0
		s0.1,0.1,0.1,0.3v0.3H1.7c-0.4,0-0.9,0-1.2,0H0.1v0.1c0,0.1,0,0.1,0.1,0.1s0.6,0.3,1.1,0.5c0.1,0.2,0.1,0.2,0,0.2
		c-0.1,0-0.1,0-0.1,0s0,0-0.1,0s-0.1,0-0.1,0s-0.1,0-0.2,0c-0.2,0-0.2,0-0.3,0c0-0.1-0.1-0.1-0.1,0s-0.1,0.1-0.1,0.1s-0.1,0-0.2,0.1
		c-0.1,0,1.1,0,10,0c5.6,0,10,0,9.8,0s-0.3,0-0.3,0c0.1,0,1.1-0.5,1.6-0.7c0.3-0.1,0.7-0.4,1-0.5c0.5-0.3,0.5-0.3,0.6-0.5
		c0.1-0.1,0.1-0.2,0.2-0.2s0.1,0,0.1,0s0.2-0.1,0.4-0.2l0.4-0.2v-0.2c0-0.1,0-0.2,0-0.3c0,0-0.1-0.1-0.2-0.1
		c-0.2-0.1-0.2-0.1-0.4-0.1c-0.2,0-0.3,0-0.6,0c-0.2,0-0.5,0-0.6-0.1c-0.1,0-0.4,0-0.6-0.1l-0.5,0v-0.2c0-0.2,0-0.2-0.1-0.2
		s-0.1,0-0.1,0.2v0.2h-0.1c-0.1,0-0.3,0-0.5-0.1c-0.2,0-0.4,0-0.4-0.1c0,0,0-0.1,0.1-0.3c0.1-0.3,0.1-0.3,0-0.3c0,0-0.1,0.3-0.2,0.6
		c-0.1,0.3-0.2,0.6-0.2,0.6c0,0.1-0.1,0.1-1.2,0.2c-1.9,0.2-2.7,0.3-3.7,0.4c-0.4,0-0.5,0-0.6,0s-0.1-0.1-0.2-0.3
		c0-0.1-0.1-0.3-0.2-0.3c-0.1-0.1-0.2-0.1-1-0.3h-0.2v0.1c0,0.1,0,0.1-0.1,0.1c-0.2-0.1-0.8-0.1-1.4-0.2c-0.6,0-0.7,0-0.8,0
		c-0.1,0-0.1,0.1-0.1,0.2v0.1H9.7H9.4l-0.4-1C8.6,9.7,8.6,9.6,8.7,9.4c0-0.1,0.1-0.1,0.2-0.1c0.4,0,0.4,0,0.4-0.4V8.7H9.1
		c-0.1,0-0.3,0-0.4,0H8.6V8.4V8.1v0.3v0.3H8.5c-0.1,0-0.1,0-0.2,0.2c-0.1,0.3-0.1,0.3,0,0.3s0.2,0.1,0.2,0.2c0,0-0.1,0-0.2,0
		C8,9.4,8,9.3,8,9V8.7h0.1c0.1,0,0.1,0,0.1-0.2c0-0.1,0-0.1-0.1-0.1H8V8.2C8,8.1,8,8,8,8l0,0c0,0,0,0-0.1,0C7.7,7.9,7.7,7.9,7.7,8z
		 M7.7,8.4c0,0.1,0,0.2,0,0.2S7.7,8.5,7.7,8.4c-0.1-0.1-0.1-0.2,0-0.2C7.7,8.3,7.7,8.4,7.7,8.4z M7.9,11.3c0,0-0.1,0.2-0.1,0.3
		c0,0.2-0.1,0.3-0.1,0.3c0,0.1-0.1,0-0.2,0c0-0.1,0.1-0.5,0.1-0.6C7.7,11.3,8,11.3,7.9,11.3z M11.2,11.9c0.5,0,1,0.1,1.1,0.2
		c0.1,0,0.2,0.2,0.1,0.3c0,0-0.1,0-0.2,0c-0.3-0.1-1.1-0.2-1.7-0.2s-0.6,0-0.5-0.2C10.2,11.8,10.2,11.8,11.2,11.9z M12.9,12
		c0.2,0.1,0.4,0.1,0.5,0.2s0.2,0.2,0.3,0.4v0.1l-0.5-0.2c-0.3-0.1-0.5-0.1-0.6-0.1s-0.1,0-0.2-0.4C12.4,11.8,12.4,11.8,12.9,12z
		 M3,12.3c0.1,0,0.2,0.1,0.4,0.3c0.3,0.2,0.3,0.2,0.3,0.4v0.1H3.1H2.5v-0.2c0-0.1,0-0.3,0-0.4v-0.2h0.2C2.9,12.3,2.9,12.3,3,12.3z
		 M2.4,13.9L2.4,13.9c-0.1,0-0.1,0.1-0.1,0.1v0.1H2c-0.2,0-0.3,0-0.3,0c-0.1,0-0.2,0-0.3,0.1l-0.1,0.1l-0.4-0.2l-0.4-0.2H1
		C2.2,13.9,2.4,13.9,2.4,13.9z M2.3,14.2c0,0,0,0-0.1,0s-0.2,0-0.2,0s-0.1,0.1-0.2,0.1c-0.1,0-0.1,0-0.2-0.1c0-0.1,0-0.1,0.2-0.1
		C2.2,14.2,2.3,14.2,2.3,14.2z M1.6,14.4H1.5c-0.1,0-0.1-0.1,0-0.1S1.6,14.3,1.6,14.4C1.6,14.3,1.6,14.4,1.6,14.4z M1.4,14.2
		C1.4,14.2,1.3,14.3,1.4,14.2C1.3,14.3,1.3,14.2,1.4,14.2C1.3,14.2,1.3,14.2,1.4,14.2C1.3,14.2,1.4,14.2,1.4,14.2z"/>
</g>
</svg>
