<?xml version="1.0" encoding="utf-8"?>
<!-- Generator: Adobe Illustrator 27.5.0, SVG Export Plug-In . SVG Version: 6.00 Build 0)  -->
<svg version="1.1" id="Laag_1" xmlns="http://www.w3.org/2000/svg" xmlns:xlink="http://www.w3.org/1999/xlink" x="0px" y="0px"
	 viewBox="0 0 24 24" style="enable-background:new 0 0 24 24;" xml:space="preserve">
<style type="text/css">
	.st0{fill-rule:evenodd;clip-rule:evenodd;}
</style>
<g>
	<path class="st0" d="M7.3,11.9C6.1,9.4,6.4,7.5,8.3,5.5C8.6,5.1,9,4.8,9.4,4.4c1.5-1.4,1.8-2.4,1-4.4c1.5,0.1,2.6,1.6,2.4,3.5
		c-0.3-0.2-0.5-0.3-1-0.6c0.6,2.1-0.5,3.4-1.8,4.6c-1.2,1.3-1.8,2.9-1.3,4.7c0.2,0.6,0.6,1.2,0.9,1.8c0.1,0,0.2-0.1,0.2-0.1
		c0-0.1,0-0.2,0-0.2c-0.5-1.8,0.2-3.1,1.5-4.4c0.4-0.4,0.8-0.8,1.1-1.1c0.9-1,1.3-2.2,1-3.6c1.5,0.3,2.3,2.1,1.8,3.7
		c-0.2-0.4-0.5-0.7-0.8-1c-0.2,0.2-0.2,0.2-0.2,0.3c0.5,1.5-0.2,2.7-1.3,3.7c-0.5,0.4-0.8,0.8-1.2,1.2c-0.8,1-1,2.1-0.5,3.3
		c-0.8,0.4-1.2,0.8-1,1.8c0.2,0.7,0.6,1.1,1.3,1.1c0.7,0,1.1-0.3,1.3-0.9c0.2-0.7,0-1.2-0.6-1.5c-0.5-0.2-0.5-0.6-0.3-0.9
		c0.2-0.4,0.6-0.7,0.9-1c0.6-0.5,1.3-1.1,1.9-1.7c0.8-0.8,1.1-1.8,1-3.1c0.5,0.3,0.9,0.5,1.3,0.8c1.1,0.7,2.1,1.5,3.1,2.1
		c0.7,0.5,0.8,1.3,0.1,1.8c-2.7,2.2-5.4,4.5-8.1,6.7c-0.5,0.4-0.7,0.8-0.5,1.5c1.5-1.2,3-2.4,4.4-3.7c1.5-1.2,3-2.4,4.5-3.7
		c0.2,0.8,0.1,1.2-0.5,1.7c-2.6,2.1-5.2,4.3-7.8,6.5c-0.2,0.2-0.5,0.4-0.8,0.6c-1.3-1.1-2.6-2.2-3.9-3.3c-1.6-1.3-3.2-2.7-4.7-4
		c-0.2-0.2-0.4-0.6-0.4-0.9c-0.1-0.8,0-1.7,0-2.5c0-0.2,0.1-0.5,0.2-0.6c1-0.7,2.1-1.4,3-2c0.6,0.5,1.1,0.9,1.6,1.4
		c0.1,0,0.1,0.1,0.2,0.1C7.3,12,7.3,11.9,7.3,11.9z"/>
</g>
</svg>
