<?xml version="1.0" encoding="utf-8"?>
<!-- Generator: Adobe Illustrator 27.5.0, SVG Export Plug-In . SVG Version: 6.00 Build 0)  -->
<svg version="1.1" id="Laag_1" xmlns="http://www.w3.org/2000/svg" xmlns:xlink="http://www.w3.org/1999/xlink" x="0px" y="0px"
	 viewBox="0 0 24 24" style="enable-background:new 0 0 24 24;" xml:space="preserve">
<path id="icon_00000183223988505440272450000011435679622132727210_" d="M4.8,16.3c-1.1,0-2,0.9-2,2c0,1.1,0.9,2,2,2s2-0.9,2-2
	C6.7,17.2,5.9,16.3,4.8,16.3z M4.8,19.6c-0.7,0-1.3-0.6-1.3-1.3c0-0.7,0.6-1.3,1.3-1.3s1.3,0.6,1.3,1.3C6.1,19,5.5,19.6,4.8,19.6z
	 M21.1,18.3c0-1.1-0.9-2-2-2c-1.1,0-2,0.9-2,2c0,1.1,0.9,2,2,2C20.2,20.3,21.1,19.4,21.1,18.3z M17.8,18.3c0-0.7,0.6-1.3,1.3-1.3
	c0.7,0,1.3,0.6,1.3,1.3c0,0.7-0.6,1.3-1.3,1.3C18.4,19.6,17.8,19,17.8,18.3z M23.6,9.8l-0.6-0.3c-0.5-0.2-1.1-0.4-1.7-0.4h-1.9V9.1
	c0-0.1,0-0.2,0-0.2h4.2c0.2,0,0.3-0.2,0.3-0.3s-0.2-0.3-0.3-0.3h-4.5c-0.3-0.4-0.7-0.6-1.2-0.6h0c-0.3,0-0.5,0.1-0.8,0.2
	c-0.3,0.2-0.6,0.3-1,0.3h-2.7c-0.4,0-0.8-0.2-1.2-0.5c0,0,0,0,0,0C11.8,7.2,11.2,7,10.6,7H8.4l0.3-1h0.2c0.4,0,0.8-0.3,0.9-0.6h1.7
	c0.2,0,0.3-0.2,0.3-0.3c0-0.2-0.2-0.3-0.3-0.3H9.8C9.7,4.3,9.3,4,8.9,4H7.6C7.1,4,6.7,4.3,6.6,4.7H6.1c-0.6,0-1.1,0.4-1.2,0.9L4.6,7
	c-0.1,0.4,0,0.8,0.2,1.1c0,0.1,0.1,0.1,0.1,0.1H1.8c-0.2,0-0.3,0.2-0.3,0.3c0,0.2,0.2,0.3,0.3,0.3h4.2c0,0.1,0,0.2,0,0.3H3.7
	c-0.5,0-0.9,0.1-1.4,0.3C2.2,9.6,2.1,9.8,2.2,9.9c0.1,0.2,0.3,0.3,0.5,0.2C3,10,3.3,9.9,3.7,9.9H7c1.4,0,2.7,1.1,2.9,2.5
	c0,0.2,0.2,0.4,0.5,0.4H12c0.2,0,0.3-0.2,0.3-0.3c0-0.2-0.2-0.3-0.3-0.3h-1.4c-0.2-0.8-0.6-1.5-1.2-2C8.7,9.5,7.9,9.2,7,9.2H6.6
	c0.1-0.9,0.8-1.6,1.7-1.6h2.3c0.4,0,0.8,0.2,1.2,0.4l-0.3,0.6c-0.1,0.3-0.2,0.6-0.1,0.8c0.1,0.3,0.3,0.5,0.5,0.6l1.8,0.9
	c-0.2,0.4-0.4,0.8-0.4,1.2c0,0.2,0.1,0.4,0.3,0.4c0.2,0,0.4-0.1,0.4-0.3c0.2-1.4,1.5-2.5,2.9-2.5h4.5c0.5,0,1,0.1,1.4,0.3l0.6,0.3
	c0,0,0,0,0,0.1l-0.6,1.3c0,0,0,0,0,0c0,0,0,0,0,0l-0.6-0.2c-0.3-0.1-0.5-0.2-0.8-0.2h-4.5c-0.7,0-1.3,0.6-1.4,1.3l-0.1,1.8
	c-0.1,1.1-1,1.9-2,1.9h-2.8c-1.1,0-2-0.8-2-1.9l-0.1-1.9c0,0,0,0,0,0C8.3,12,7.7,11.5,7,11.5H3.7c-0.8,0-1.4,0.6-1.4,1.4v0.3
	c0,0,0,0.1-0.1,0.1H0.8c0,0-0.1,0-0.1-0.1v-0.3c0-0.7,0.2-1.3,0.6-1.8c0.1-0.1,0.1-0.4-0.1-0.5c-0.2-0.1-0.4-0.1-0.5,0.1
	c-0.5,0.6-0.8,1.4-0.8,2.2v0.3c0,0.4,0.3,0.8,0.8,0.8h1.4c0,0,0,0,0.1,0v0.5c0,0.2,0,0.5,0.1,0.7c-1,0.7-1.6,1.9-1.6,3.2
	c0,2.2,1.8,4,4,4c2.2,0,4-1.8,4-4c0-0.4-0.1-0.7-0.2-1.1h6.7c-0.1,0.3-0.1,0.7-0.1,1.1c0,0.4,0.1,0.9,0.2,1.3
	c0.1,0.2,0.3,0.3,0.4,0.2c0.2-0.1,0.3-0.3,0.2-0.4c-0.1-0.3-0.2-0.7-0.2-1c0-1.8,1.5-3.3,3.3-3.3c1.8,0,3.3,1.5,3.3,3.3
	c0,1.8-1.5,3.3-3.3,3.3c-0.8,0-1.6-0.3-2.3-0.9c-0.1-0.1-0.4-0.1-0.5,0c-0.1,0.1-0.1,0.4,0,0.5c0.7,0.7,1.7,1.1,2.7,1.1
	c2.2,0,4-1.8,4-4c0-1-0.3-1.8-0.9-2.5c0.2-0.4,0.4-0.9,0.4-1.4V13c0-0.2,0-0.3,0-0.5c0.2,0.1,0.3,0,0.5,0c0.2-0.1,0.3-0.2,0.4-0.4
	l0.6-1.3C24.2,10.4,24,10,23.6,9.8z M7.6,4.7h1.3C9,4.7,9.2,4.8,9.2,5c0,0.2-0.1,0.3-0.3,0.3H7.6C7.4,5.3,7.3,5.1,7.3,5
	C7.3,4.8,7.4,4.7,7.6,4.7z M6.4,7.9H5.8c-0.2,0-0.3-0.1-0.4-0.2C5.2,7.5,5.2,7.3,5.2,7.2l0.4-1.3c0.1-0.2,0.3-0.4,0.5-0.4h0.6
	C6.9,5.8,7.2,6,7.6,6H8L7.7,7C7.2,7.2,6.7,7.5,6.4,7.9z M14.5,10.1c-0.1,0.1-0.3,0.2-0.4,0.4l-1.9-1c-0.1,0-0.2-0.1-0.2-0.2
	c0-0.1,0-0.2,0-0.3l0.2-0.5c0.4,0.2,0.8,0.3,1.2,0.3h2.7c0.5,0,1-0.1,1.4-0.4c0.1-0.1,0.3-0.1,0.4-0.1h0c0.5,0,0.8,0.4,0.8,0.8v0.1
	h-1.9C16,9.2,15.2,9.5,14.5,10.1z M4.8,21.6c-1.8,0-3.3-1.5-3.3-3.3C1.5,16.5,3,15,4.8,15S8,16.5,8,18.3C8,20.1,6.6,21.6,4.8,21.6z
	 M8.3,16.5c-0.7-1.3-2-2.2-3.5-2.2c-0.6,0-1.2,0.1-1.7,0.4c0-0.1,0-0.2,0-0.3l0-1.5c0-0.4,0.3-0.7,0.7-0.7H7c0.4,0,0.6,0.3,0.7,0.6
	l0.1,1.9c0,0.7,0.4,1.4,0.9,1.9L8.3,16.5L8.3,16.5z M19.1,14.3c-1.5,0-2.9,0.9-3.5,2.2h-0.4c0.5-0.5,0.9-1.1,0.9-1.9l0.1-1.8
	c0-0.4,0.3-0.7,0.7-0.7h4.5c0.1,0,0.2,0,0.4,0.1c0.1,0.3,0.1,0.5,0.1,0.8v1.4c0,0.3-0.1,0.6-0.2,0.9C21,14.7,20.1,14.3,19.1,14.3z
	 M5.2,18.3c0,0.2-0.2,0.4-0.4,0.4c-0.2,0-0.4-0.2-0.4-0.4c0-0.2,0.2-0.4,0.4-0.4C5,17.9,5.2,18.1,5.2,18.3z M19.5,18.3
	c0,0.2-0.2,0.4-0.4,0.4s-0.4-0.2-0.4-0.4c0-0.2,0.2-0.4,0.4-0.4S19.5,18.1,19.5,18.3z"/>
</svg>
