<?xml version="1.0" encoding="utf-8"?>
<!-- Generator: Adobe Illustrator 27.5.0, SVG Export Plug-In . SVG Version: 6.00 Build 0)  -->
<svg version="1.1" id="Laag_1" xmlns="http://www.w3.org/2000/svg" xmlns:xlink="http://www.w3.org/1999/xlink" x="0px" y="0px"
	 viewBox="0 0 24 24" style="enable-background:new 0 0 24 24;" xml:space="preserve">
<g id="layer1">
	<path id="icon" d="M3.1,5.5C2.8,5.6,2.7,5.9,2.7,6.2c0,0.1,0.6,1.5,1.5,3.6c1.4,3.2,1.5,3.4,1.6,3.4c0.2,0,0.2,0,0-0.4
		c-0.1-0.2-0.1-0.3-0.1-0.4c0,0,0.3,0.1,0.6,0.2C6.9,12.8,6.9,12.8,7,13c0.1,0.2,0.1,0.2,0.2,0.2c0.1,0,0.1,0,0.1,0
		c0-0.1-3.2-7.3-3.2-7.5C4,5.6,3.7,5.4,3.5,5.4C3.3,5.4,3.2,5.5,3.1,5.5L3.1,5.5z M3.6,5.7C3.8,5.8,3.8,5.9,4,6.3l0.1,0.3L3.8,7
		C3.6,7.2,3.5,7.4,3.4,7.4c0,0-0.1-0.3-0.3-0.6C2.8,6.2,2.8,6.1,3,5.8c0.1-0.1,0.2-0.1,0.2-0.1c0.1,0,0.1,0,0.1,0
		C3.4,5.7,3.5,5.7,3.6,5.7L3.6,5.7z M4.6,7.6l0.3,0.7L4.6,8.7C4.4,8.9,4.2,9.1,4.2,9.1L3.6,7.7c0,0,0.6-0.8,0.7-0.8
		C4.3,6.9,4.4,7.2,4.6,7.6z M5.4,9.4c0.2,0.4,0.3,0.8,0.3,0.8S5.2,10.8,5.1,11c0,0-0.2-0.3-0.4-0.8L4.4,9.4L4.7,9
		C4.9,8.8,5,8.6,5.1,8.6C5,8.6,5.2,9,5.4,9.4z M6.3,11.6c0.2,0.4,0.3,0.8,0.3,0.8S5.5,12,5.4,12c-0.1-0.1-0.3-0.7-0.3-0.7
		s0.2-0.2,0.3-0.4l0.3-0.4l0.1,0.2C5.9,10.7,6.1,11.2,6.3,11.6L6.3,11.6z M12,10.5c-0.1,0-0.1,0.1-0.1,0.2s0.2,0.6,0.4,1.3l0.4,1.2
		H13c0.2,0,0.3,0,0.3-0.1c0,0-0.2-0.6-0.4-1.3C12.3,10.5,12.2,10.4,12,10.5L12,10.5z M3.7,11c-0.7,0.1-1.6,0.3-2,0.6
		c-0.6,0.3-0.9,0.8-0.8,1.4v0.2h2.2c1.2,0,2.2,0,2.2,0s-0.2-0.5-0.4-1.1L4.5,11H4.3C3.9,11,3.8,11,3.7,11L3.7,11z M16,11.4
		c-0.4,0.2-0.7,0.5-0.8,0.5V12c0.1,0.1,0.1,0,0.4-0.1l0.3-0.2l0.1,0.1c0,0.1,0.1,0.1,0.1,0.2c0,0-0.2,0.2-0.4,0.3l-0.4,0.2v0.3v0.3
		h1c0.8,0,1,0,1-0.1c0,0,0-0.4,0-0.9v-0.9l-0.5,0.3c-0.3,0.2-0.5,0.3-0.5,0.3l-0.2-0.3c0,0,0.2-0.1,0.3-0.2c0.3-0.2,0.3-0.2,0.3-0.3
		l-0.1-0.1C16.8,11,16.4,11.2,16,11.4L16,11.4z M23,11.8c-0.1,0-0.3,0.1-0.4,0.3c-0.8,0.6-2.3,1.1-4.2,1.4c-0.6,0.1-0.8,0.1-9,0.1
		c-4.6,0-8.4,0-8.5,0s-0.2,0.1-0.4,0.2c-0.3,0.2-0.4,0.5-0.3,0.9c0.1,0.3,0.3,0.5,0.6,0.6c0.2,0.1,1.1,0.1,8.7,0.1H18l0.8-0.1
		c2.1-0.4,3.7-0.9,4.7-1.6c0.5-0.3,0.6-0.5,0.6-0.9s-0.3-0.8-0.7-0.9C23.2,11.7,23.2,11.7,23,11.8L23,11.8z M22.9,14.4
		c-1,0.5-2.6,1-4.3,1.2c-0.6,0.1-0.9,0.1-8.9,0.1H1.4v0.2c0,0.2,0.2,0.5,0.4,0.6L2,16.6h8.1c8.9,0,8.3,0,9.8-0.3
		c1.3-0.3,2.3-0.7,3-1.2c0.4-0.2,0.5-0.4,0.5-0.7C23.4,14.2,23.3,14.2,22.9,14.4L22.9,14.4z"/>
</g>
</svg>
