<?xml version="1.0" encoding="utf-8"?>
<svg xmlns="http://www.w3.org/2000/svg" viewBox="0 0 24 24" width="24" height="24" fill="#000000"><path d="M31.1,21.7c-0.3-0.1-0.7-0.4-1.2-0.7l-0.3-0.2c-1.1-0.7-2.6-1.6-3.7-2.1c-0.2-0.1-0.5-0.2-0.7-0.2
		c-0.4,0-0.6,0.2-0.8,0.3c0,0-0.1,0-0.1,0c-0.3,0-0.7-0.4-0.9-0.5c-0.2-0.2-0.4-0.3-0.6-0.3c0-0.3-0.1-0.6-0.4-0.7l-2.4-1l-0.5-2.1
		c0,0,0,0,0,0c0-0.2-0.1-0.3-0.2-0.4l-1.6-0.6c-0.2-0.1-0.4,0-0.4,0.2L14.8,18c-0.1,0.2,0,0.4,0.1,0.5l1.2,1.1
		c0.1,0.1,0.1,0.1,0.1,0.2c-0.5-0.2-1-0.3-1.5-0.4l-0.8-0.1c-0.2,0-0.4,0-0.6,0c-0.3,0-0.8,0-1,0.2c-0.1,0.1-0.2,0.1-0.2,0.1
		c0,0,0,0,0,0c-0.2-0.1-0.4-0.2-0.6,0c-0.3,0.3,0.1,0.9,0.2,1.1c0.2,0.3,0.2,0.7-0.1,1c-0.3,0.3-0.6,0.5-0.8,0.5l0,0
		c-0.3,0-1,0.2-1.5,0.3C8.9,22.6,8,22.8,8,23.2c0,0.2,0.2,0.4,0.5,0.4c0,0,0.1,0.2,0.1,0.6c0,0.5,0.2,1,0.5,1.3
		c0.3,0.3,1.1,0.4,1.7,0.4h11.7c0.7,0,1.7-0.1,2.3-0.2c0.5-0.1,1.4-0.3,2.2-0.4c1.1-0.2,1.8-0.5,2.2-0.7c0.3-0.2,0.6-0.4,0.9-0.6
		c0.1-0.1,0.3-0.2,0.4-0.3c0.3-0.3,0.7-0.6,0.9-0.6c0.3-0.1,0.4-0.2,0.5-0.4c0-0.1,0-0.2,0-0.3C31.8,22.1,31.4,21.8,31.1,21.7z
		 M22.2,20.1c-0.4,0.2-1.2,0.3-1.8,0.2c-1-0.1-1.8-0.1-2.3-0.1c0.1-0.1,0.1-0.4,0-0.5l-0.6-1.1c-0.1-0.2-0.1-0.4,0-0.5l1.1-2.1
		l0.2,1c0,0.2,0.2,0.4,0.4,0.4l2.7,1.1c0,0,0.1,0,0.1,0c0,0,0.1,0,0.1,0c0,0.2,0.1,0.4,0.2,0.5c0.1,0.1,0.3,0.4,0.4,0.7
		C22.7,19.7,22.5,20,22.2,20.1z" fill="#000000"/></svg>
