<?xml version="1.0" encoding="utf-8"?>
<!-- Generator: Adobe Illustrator 27.5.0, SVG Export Plug-In . SVG Version: 6.00 Build 0)  -->
<svg version="1.1" id="Laag_1" xmlns="http://www.w3.org/2000/svg" xmlns:xlink="http://www.w3.org/1999/xlink" x="0px" y="0px"
	 viewBox="0 0 24 24" style="enable-background:new 0 0 24 24;" xml:space="preserve">
<g id="layer1">
	<path d="M18.5,13.9c0.1-0.1,0.1-0.1,0.2-0.2C18.6,13.8,18.5,13.8,18.5,13.9z"/>
	<path d="M6.6,16.1c0-0.1,0-0.1,0-0.2h0.1C6.7,16,6.6,16,6.6,16.1z"/>
	<path d="M12.6,10.1c0,0,0.1,0,0.1,0.1c0,0,0,0.1-0.1,0.1c0,0-0.1,0-0.1-0.1C12.5,10.2,12.5,10.1,12.6,10.1z"/>
	<path d="M17,12.2c-0.1,0-0.1,0.1-0.1,0c0,0,0-0.1-0.1-0.1c0,0,0.1-0.1,0.1,0C17,12.1,17,12.2,17,12.2z"/>
	<path d="M20.3,12.2c0.1,0.1,0.2,0.1,0.4,0.2C20.6,12.3,20.5,12.2,20.3,12.2z"/>
	<path d="M15.4,11.7c0.1-0.1,0.1-0.1,0.2-0.2C15.5,11.6,15.4,11.6,15.4,11.7z"/>
	<path d="M21.1,6L8,3.1c0,0-0.8,0.2-2.1,0.4l13,3.5C18.9,7,20.1,6.6,21.1,6z"/>
	<path d="M9.9,2.5l12.9,2.4c0,0,0.7-0.5,1.3-1.1L11.4,1.9C11.4,1.9,10.7,2.3,9.9,2.5z"/>
	<path d="M22.2,10.7l-0.5-0.3c-2.6-0.4-6.1,0-8.4,1.7c-2.3,1.6-5.3,3.1-9,3.3v-0.6c3.6,0,6.5-1.9,8.5-3.5c1.9-1.6,5.3-2.2,7.8-1.8
		l-0.5-0.3c-2.3-0.4-5.5,0-7.6,1.5s-4.7,2.8-8.1,3v-0.5c3.3,0,5.9-1.8,7.7-3.2c1.7-1.4,4.8-2,7-1.6L18.5,8c-0.6-0.1-1.4-0.1-2.1-0.1
		L3.6,3.8c-1,0.1-2.1,0.1-3.1,0.1l8.1,3.2C7.4,7.7,6.1,8.2,4.5,8.3L4.4,9.1c1.9,0,3.6-0.8,4.7-1.7l0.7,0.3C8.3,8.6,6.6,9.4,4.4,9.5
		v0.9c2.5,0,4.5-1.2,6-2.4l0.7,0.3c-1.8,1.3-4,2.5-6.8,2.5c0,0-2.3,0.9-4.3,2.3l10.3,10.8c0,0,4.5-7.1,11.4-9.6c0,0-4.9-2.2-6.1-2.8
		C17.7,10.7,20.3,10.3,22.2,10.7z M4.4,11.6c3,0,5.3-1.5,7.3-3.2l0,0l1,0.4C12.3,9,12,9.1,11.6,9.4C9.7,10.7,7.4,12,4.3,12L4.4,11.6
		L4.4,11.6z"/>
</g>
</svg>
