<?xml version="1.0" encoding="utf-8"?>
<!-- Generator: Adobe Illustrator 27.5.0, SVG Export Plug-In . SVG Version: 6.00 Build 0)  -->
<svg version="1.1" id="Laag_1" xmlns="http://www.w3.org/2000/svg" xmlns:xlink="http://www.w3.org/1999/xlink" x="0px" y="0px"
	 viewBox="0 0 24 24" style="enable-background:new 0 0 24 24;" xml:space="preserve">
<g id="layer1">
	<path d="M17.9,12.1l4.5,0.3c0.4,0,0.8,0.4,0.8,0.9V16h-0.4v-0.1v-0.1c0-0.1,0-0.1,0-0.2v-0.1c0-0.1,0-0.1-0.1-0.2v-0.1
		c0-0.1-0.1-0.1-0.1-0.2v-0.1c0-0.1-0.1-0.2-0.1-0.2s0,0,0-0.1s-0.1-0.1-0.1-0.2c0,0,0,0-0.1-0.1l-0.1-0.1l-0.1-0.1L22,14
		c0,0-0.1,0-0.1-0.1l-0.1-0.1c0,0-0.1,0-0.1-0.1l-0.1-0.1c0,0-0.1,0-0.1-0.1c0,0-0.1,0-0.1-0.1h-0.1c0,0-0.1,0-0.1-0.1h-0.1
		c-0.1,0-0.1,0-0.2,0h-0.1c-0.1,0-0.1,0-0.2,0h-0.1c-0.1,0-0.2,0-0.3,0s-0.2,0-0.3,0h-0.1c-0.1,0-0.1,0-0.2,0h-0.1
		c-0.1,0-0.1,0-0.2,0h-0.1c0,0-0.1,0-0.1,0.1H19c0,0-0.1,0-0.1,0.1c0,0-0.1,0-0.1,0.1l-0.1,0.1c0,0-0.1,0-0.1,0.1l-0.1,0.1
		c0,0-0.1,0-0.1,0.1l-0.1,0.1c0,0-0.1,0-0.1,0.1l0,0L17.9,12.1L17.9,12.1z"/>
	<rect x="11.7" y="11.8" width="5.6" height="3.9"/>
	<path d="M7.9,14.1L7.9,14.1c-0.1-0.1-0.2-0.2-0.2-0.2s-0.1,0-0.1-0.1l-0.1-0.1c0,0-0.1,0-0.1-0.1l-0.1-0.1c0,0-0.1,0-0.1-0.1H7.1
		v-1.6h4.3v3.8H8.8v-0.1v-0.1c0-0.1,0-0.1,0-0.2v-0.1c0-0.1,0-0.1-0.1-0.2v-0.1c0-0.1-0.1-0.1-0.1-0.2c0,0,0,0,0-0.1
		c0-0.1-0.1-0.2-0.1-0.2s0,0,0-0.1S8.4,14.1,8.4,14c0,0,0,0-0.1-0.1C8,14.2,8,14.2,7.9,14.1z"/>
	<path d="M2.5,14.2V12h4.7v1.4l0,0H7c-0.1,0-0.2,0-0.3,0s-0.2,0-0.3,0H6.3c-0.1,0-0.1,0-0.2,0H6c-0.1,0-0.1,0-0.2,0H5.7
		c-0.1,0-0.1,0-0.2,0.1H5.4c-0.1,0-0.1,0-0.2,0.1c0,0-0.1,0-0.1,0.1c-0.1,0-0.1,0.1-0.2,0.1c0,0-0.1,0-0.1,0.1L4.7,14
		c0,0-0.1,0-0.1,0.1l-0.1,0.1l-0.1,0.1l-0.1,0.1c0,0,0,0-0.1,0.1c0,0.1-0.1,0.1-0.1,0.2c0,0,0,0,0,0.1C4,14.9,4,15,3.9,15
		c0,0,0,0,0,0.1s-0.1,0.1-0.1,0.2v0.1c0,0.1,0,0.1-0.1,0.2v0.1c0,0.1,0,0.1,0,0.2V16v0.1h-1L2.5,14.2L2.5,14.2L2.5,14.2z"/>
	<rect x="0.8" y="9.7" width="0.9" height="4"/>
	<rect x="12.8" y="12.9" width="1.6" height="0.8"/>
	<circle cx="20" cy="16.1" r="1.2"/>
	<circle cx="20" cy="16.1" r="0.4"/>
	<circle cx="6" cy="16.1" r="1.2"/>
	<circle cx="6" cy="16.1" r="0.4"/>
	<path id="icon" d="M0.1,9.3v4.8c0,0.2,0.2,0.4,0.4,0.4h1.2v1.6c0,0.2,0.2,0.4,0.4,0.4h1.2c0.2,1.2,1.1,2.2,2.4,2.4
		c1.5,0.2,2.9-0.8,3.2-2.4h8.5c0.2,1.2,1.1,2.2,2.4,2.4c1.5,0.2,2.9-0.8,3.2-2.4h0.8c0.2,0,0.4-0.2,0.4-0.4v-2.9
		c0-0.8-0.7-1.5-1.5-1.6l-5.2-0.3l-1.6-2.8C15.5,8,15,7.7,14.4,7.7h-10C3.8,7.7,3.3,8.1,3,8.6L2.5,9.8V9.3c0-0.2-0.2-0.4-0.4-0.4
		H0.5C0.3,8.9,0.1,9.1,0.1,9.3z M18,16.1c0-1.1,0.9-2,2-2s2,0.9,2,2s-0.9,2-2,2S18,17.2,18,16.1z M18,12.2l4.5,0.3
		c0.4,0,0.7,0.4,0.7,0.8v2.5h-0.4v-0.1v-0.1c0-0.1,0-0.1,0-0.1v-0.1c0-0.1,0-0.1-0.1-0.2v-0.1c0-0.1-0.1-0.1-0.1-0.2c0,0,0,0,0-0.1
		s-0.1-0.1-0.1-0.2l0,0c0-0.1-0.1-0.1-0.1-0.2c0,0,0,0-0.1-0.1l-0.1-0.1c0,0,0,0-0.1-0.1L22,14c0,0-0.1,0-0.1-0.1l-0.1-0.1
		c0,0-0.1,0-0.1-0.1l-0.1-0.1c0,0-0.1,0-0.1-0.1c0,0-0.1,0-0.1-0.1h-0.1c0,0-0.1,0-0.1-0.1h-0.1c-0.1,0-0.1,0-0.2,0h-0.1
		c-0.1,0-0.1,0-0.2,0h-0.1c-0.1,0-0.2,0-0.3,0s-0.2,0-0.3,0h-0.1c-0.1,0-0.1,0-0.2,0h-0.1c-0.1,0-0.1,0-0.2,0h-0.1
		c0,0-0.1,0-0.1,0.1H19c0,0-0.1,0-0.1,0.1c0,0-0.1,0-0.1,0.1c0,0-0.1,0-0.1,0.1c0,0-0.1,0-0.1,0.1l-0.1,0.1c0,0-0.1,0-0.1,0.1
		l-0.1,0.1c0,0-0.1,0-0.1,0.1l0,0L18,12.2L18,12.2z M6.4,8.5v2.8H2.7l1-2.3C3.7,8.7,4,8.5,4.3,8.5H6.4L6.4,8.5z M11.2,11.3h-4V8.5h4
		V11.3z M12,12.1h5.2v3.6H12V12.1z M12,8.5h2.5c0.3,0,0.6,0.2,0.7,0.4l1.3,2.4H12V8.5z M8,14.1C8,14.1,7.9,14.1,8,14.1
		C7.9,14,7.9,14,7.8,13.9c0,0-0.1,0-0.1-0.1l-0.1-0.1c0,0-0.1,0-0.1-0.1l-0.1-0.1c0,0-0.1,0-0.1-0.1H7.2v-1.5h4v3.6H8.8v-0.1v-0.1
		c0-0.1,0-0.1,0-0.2V15c0-0.1,0-0.1-0.1-0.2v-0.1c0-0.1-0.1-0.1-0.1-0.2c0,0,0,0,0-0.1c0-0.1-0.1-0.2-0.1-0.2l0,0
		c0-0.1-0.1-0.1-0.1-0.2c0,0,0,0-0.1-0.1C8.1,14.2,8,14.2,8,14.1z M4,16.1c0-1.1,0.9-2,2-2s2,0.9,2,2s-0.9,2-2,2S4,17.2,4,16.1z
		 M2.5,14.1v-2h4v1.2l0,0H6.3c-0.1,0-0.2,0-0.3,0s-0.2,0-0.3,0H5.6c-0.1,0-0.1,0-0.2,0H5.3c-0.1,0-0.1,0-0.2,0H5c0,0-0.1,0-0.1,0.1
		H4.8c0,0-0.1,0-0.1,0.1c0,0-0.1,0-0.1,0.1c0,0-0.1,0-0.1,0.1c0,0-0.1,0-0.1,0.1l-0.1,0.1c0,0-0.1,0-0.1,0.1l-0.1,0.1
		c0,0-0.1,0-0.1,0.1l-0.1,0.1c0,0,0,0-0.1,0.1c0,0.1-0.1,0.1-0.1,0.2l0,0c0,0.1-0.1,0.1-0.1,0.2c0,0,0,0,0,0.1S3.5,15,3.5,15.1v0.1
		c0,0,0,0.1-0.1,0.2v0.1c0,0,0,0.1,0,0.2v0.1v0.1H2.7L2.5,14.1L2.5,14.1z M0.9,9.7h0.8v4H0.9V9.7z M14.4,13.7h-1.6v-0.8h1.6V13.7z
		 M18.8,16.1c0,0.7,0.5,1.2,1.2,1.2c0.7,0,1.2-0.5,1.2-1.2s-0.5-1.2-1.2-1.2C19.3,14.9,18.8,15.4,18.8,16.1z M19.6,16.1
		c0-0.2,0.2-0.4,0.4-0.4c0.2,0,0.4,0.2,0.4,0.4s-0.2,0.4-0.4,0.4C19.8,16.5,19.6,16.3,19.6,16.1z M4.8,16.1c0,0.7,0.5,1.2,1.2,1.2
		s1.2-0.5,1.2-1.2S6.7,14.9,6,14.9C5.3,14.9,4.8,15.4,4.8,16.1z M5.6,16.1c0-0.2,0.2-0.4,0.4-0.4c0.2,0,0.4,0.2,0.4,0.4
		S6.2,16.5,6,16.5C5.8,16.5,5.6,16.3,5.6,16.1z"/>
</g>
</svg>
