<?xml version="1.0" encoding="utf-8"?>
<!-- Generator: Adobe Illustrator 27.5.0, SVG Export Plug-In . SVG Version: 6.00 Build 0)  -->
<svg version="1.1" id="Laag_1" xmlns="http://www.w3.org/2000/svg" xmlns:xlink="http://www.w3.org/1999/xlink" x="0px" y="0px"
	 viewBox="0 0 24 24" style="enable-background:new 0 0 24 24;" xml:space="preserve">
<g id="layer1">
	<path id="icon" d="M5.2,6.3c0,0.7,0.1,1.2,0.2,1.2c0.1,0,0.2,0.2,0.2,0.5s0.1,0.7,0.2,1C6,9.5,5.9,9.5,5.1,9.5
		c-1.7,0-1.7,0-1.8,0.9s0.5,1.5,1.5,1.5c0.6,0,0.6,0,0.6,1c0,0.6-0.1,0.9-0.1,0.8c-0.2-0.4-0.7-0.3-0.8,0.1
		c-0.1,0.3-0.5,0.3-1.9,0.3c-1,0-2,0.1-2.2,0.2c-0.6,0.3-0.5,1.1,0.1,1.7c0.3,0.3,0.5,0.6,0.4,0.7s4.4,0.2,10.7,0.2
		c7.1,0,10.8-0.1,10.8-0.2s-0.1-0.2-0.2-0.2s0.2-0.5,0.8-1.1c1-1.1,1.2-1.9,0.7-2.4c-0.2-0.1-1.1-0.3-2.1-0.4s-1.8-0.2-1.8-0.3
		c0-0.1-0.2-0.2-0.4-0.2c-0.3,0-0.4,0.2-0.4,0.6c0,0.5-0.1,0.7-0.5,0.7c-0.4,0.1-0.5,0-0.5-0.3s-0.3-0.4-2-0.5
		c-1.1-0.1-2.7-0.1-3.6-0.1h-1.7l-0.9-1.4c-0.5-0.7-1-1.5-1.1-1.7S8.3,9.1,8,9.1c-0.3,0-0.4-0.2-0.4-0.8c0-0.5-0.1-0.8-0.2-0.8
		c-0.1,0-0.2,0.4-0.2,0.8c0,1.6-0.3,0.8-0.5-1.2l-0.2-2H5.9C5.2,5.1,5.2,5.1,5.2,6.3L5.2,6.3z"/>
</g>
</svg>
