<?xml version="1.0" encoding="utf-8"?>
<!-- Generator: Adobe Illustrator 27.5.0, SVG Export Plug-In . SVG Version: 6.00 Build 0)  -->
<svg version="1.1" id="Laag_1" xmlns="http://www.w3.org/2000/svg" xmlns:xlink="http://www.w3.org/1999/xlink" x="0px" y="0px"
	 viewBox="0 0 24 24" style="enable-background:new 0 0 24 24;" xml:space="preserve">
<style type="text/css">
	.st0{fill:#FFFFFF;}
	.st1{fill:#E6723D;}
</style>
<g id="layer1">
	<circle cx="0.6" cy="12.6" r="0.1"/>
	<path class="st0" d="M3,12.6C3,12.6,3,12.7,3,12.6l-0.7,0.2l0,0H2.2l0,0l-0.3,0.1L2,13.4l0,0v0.2C2,13.8,1.8,14,1.6,14H0.8v1.4
		c0,0.2-0.1,0.3-0.3,0.3l0,0c0,0-0.1,0-0.1-0.1v-0.1H0.3V16c0,0,0,0.1-0.1,0.1c0,0-0.1,0-0.1-0.1v-0.5h0c0,0-0.1,0-0.1-0.1
		c0,0,0-0.1,0.1-0.1h0.1v-0.5c0,0,0-0.1,0.1-0.1c0,0,0.1,0,0.1,0.1v0.5h0.1v-1.5c-0.2,0-0.4-0.2-0.4-0.4v-0.8c0-0.4,0.3-0.8,0.8-0.8
		h0.8C1.8,11.8,2,11.9,2,12l0.1,0.5l0.2-0.1l0,0l0,0l0,0l0.6-0.2H3L3,12.6L3,12.6z"/>
	<path d="M1.9,12.8H1.7l0,0c0,0.1-0.1,0.3-0.3,0.3c-0.1,0-0.3-0.1-0.3-0.3c0-0.1,0.1-0.3,0.3-0.3c0.1,0,0.2,0.1,0.2,0.1l0.2-0.1
		L1.7,12l0,0c0-0.1-0.1-0.1-0.2-0.1H0.8c-0.4,0.2-0.7,0.5-0.7,0.9v0.5h1.5c0,0,0.1,0,0.1,0.1c0,0,0,0.1-0.1,0.1H0.2v0.2
		c0,0.2,0.1,0.3,0.3,0.3h0.1c0,0,0.1,0,0.1,0.1c0,0,0,0.1-0.1,0.1H0.5v1.6c0.1,0,0.2-0.1,0.2-0.2v-1.5c0,0,0-0.1,0.1-0.1h0.9
		C1.9,14,2,13.9,2,13.7v-0.2L1.9,12.8z"/>
	<path d="M1.4,12.8L1.4,12.8C1.5,12.8,1.5,12.8,1.4,12.8C1.3,12.7,1.3,12.8,1.4,12.8c-0.1,0.2,0,0.2,0,0.2C1.5,13,1.5,13,1.4,12.8
		L1.4,12.8L1.4,12.8C1.4,13,1.4,12.9,1.4,12.8C1.4,12.9,1.4,12.8,1.4,12.8z"/>
	<polygon points="2.9,12.6 2.8,12.5 2.3,12.6 2.3,12.6 2.3,12.6 2.3,12.6 2.3,12.7 	"/>
	<path class="st0" d="M24,13.1c0-0.2-0.1-0.1-0.2-0.1c-0.7,0.1-1.3,0.2-2,0.3c-1.5,0.2-3,0.4-4.5,0.5c-1.7,0.1-3.4,0.2-5.2,0.3
		c-1.7,0-3.3,0-5,0c-1.3,0-2.5,0-3.7-0.1c-0.7,0-1.5,0-2.2-0.1c-0.1,0-0.2,0-0.2,0.2c0,0.2,0,0.3,0.1,0.5c0.2,0.6,0.4,1.2,0.9,1.7
		c0.2,0.3,0.5,0.5,0.9,0.5c1.5,0.2,3,0.3,4.6,0.5c0,0,0,0,0.1,0c0.1,0,0.2,0,0.3,0c0,0.2,0,0,0,0c2.6,0.5,5.7,0.6,8.5,0.3h0.3
		c0,0,0.2,0,0.2-0.1l0.3-0.1c0.5-0.1,0.5,0,0.9-0.1c1.2-0.2,2.4-0.6,3.5-1.2c1.1-0.6,1.7-1.6,2.2-2.8L24,13.1
		C24.1,13.3,24,13.2,24,13.1z M23.6,13.6c-0.4,0.9-1.1,1.6-2,2.2c-1.1,0.7-2.2,1-3.5,1.3c-1.6,0.3-3.1,0.4-4.7,0.5
		c-1.9,0-3.8,0-5.6-0.2c-1.7-0.2-3.4-0.4-5.1-0.6c-0.4,0-0.5-0.3-0.7-0.6c-0.5-0.6-0.7-1.2-0.9-1.8c0,0,0,0,0-0.1
		c0.1,0,0.2,0,0.3,0.1c0.1,0.3,0.3,0.5,0.5,0.8c0.3,0.3,0.7,0.4,1,0.1c0.3-0.2,0.5-0.5,0.7-0.7c0,0,0-0.1,0.1-0.1
		c0.1,0.1,0.1,0.2,0.2,0.3c0.2,0.2,0.4,0.5,0.6,0.7c0.2,0.2,0.4,0.2,0.7,0.2h0.1l0,0v-0.1c0,0,0,0-0.1,0H5.1H5l0,0c0,0,0,0-0.1,0
		c-0.1,0-0.1,0-0.2,0c-0.5-0.2-0.7-0.6-1-1.1h1.4c0.1,0,0.3,0,0.4,0l0,0c0.2,0,0.4,0,0.7,0h0.1h0.1h2.5c-0.4,0.4-0.7,0.8-1.2,1
		c-0.4,0.1-0.7-0.1-0.9-0.4c-0.1-0.2-0.3-0.4-0.4-0.5c0,0,0,0-0.1,0.1c0.2,0.2,0.3,0.5,0.6,0.7c0.3,0.3,0.8,0.3,1.2,0.1
		c0.3-0.2,0.5-0.4,0.7-0.7c0-0.1,0.1-0.1,0.1-0.2c0.2,0.2,0.3,0.5,0.5,0.7c0.4,0.5,1,0.6,1.5,0.3h-0.1c-0.5,0.2-0.9,0.1-1.2-0.3
		c-0.2-0.2-0.3-0.4-0.5-0.7c1,0,1.9,0,2.8-0.1l0.1-0.1c0.2,0,0.3,0,0.5,0c0.7,0,1.3,0,2-0.1c0.2,0,0.4,0,0.6,0
		c-0.3,0.4-0.7,0.8-1.2,1c-0.5,0.1-0.8,0-1.1-0.3c-0.2-0.2-0.3-0.4-0.5-0.5c0,0,0,0.1-0.1,0.1c0.2,0.2,0.4,0.5,0.6,0.7
		c0.5,0.4,1.1,0.3,1.7-0.2c0.2-0.2,0.4-0.4,0.6-0.7c0.1,0.1,0.1,0.2,0.2,0.4c0.2,0.2,0.4,0.4,0.6,0.6c0.4,0.3,0.8,0.2,1.2-0.1
		c0.3-0.3,0.5-0.6,0.8-0.9c0,0,0.1-0.1,0.1-0.2c0.1,0.2,0.3,0.4,0.4,0.6c0.1,0.1,0.2,0.2,0.3,0.3c0.4,0.3,0.9,0.3,1.2,0
		c0.3-0.2,0.5-0.6,0.7-0.8c0.1-0.1,0.1-0.2,0.2-0.3c0.1,0.1,0.1,0.2,0.1,0.3c0.1,0.2,0.2,0.4,0.4,0.6c0.2,0.3,0.5,0.3,0.8,0.1
		c0.3-0.3,0.6-0.5,0.8-0.8c0.2-0.2,0.3-0.4,0.4-0.6l0.1-0.1l0,0C23.6,13.5,23.6,13.5,23.6,13.6z M1.4,14.3c0.7,0,1.4,0,2.2,0.1
		c-0.3,0.4-0.6,0.8-1,1c-0.2,0.1-0.4,0-0.6-0.1C1.7,15,1.6,14.7,1.4,14.3z M15.3,14.3c0.9-0.1,1.7-0.1,2.6-0.2l0,0
		c-0.3,0.4-0.5,0.8-1,1.1c-0.4,0.2-0.7,0.2-1-0.1C15.7,14.9,15.5,14.6,15.3,14.3z M18.2,14.1c0.9-0.1,1.7-0.2,2.6-0.3
		c-0.2,0.4-0.5,0.8-0.9,1.1c-0.4,0.3-0.7,0.3-1.1,0C18.5,14.7,18.3,14.4,18.2,14.1z M20.9,13.8c0.9-0.1,1.6-0.2,2.5-0.4
		c-0.3,0.3-0.5,0.6-0.7,0.9c-0.1,0.2-0.3,0.3-0.5,0.5c-0.3,0.2-0.5,0.2-0.7-0.1C21.3,14.4,21.1,14.1,20.9,13.8z M23.8,13.3
		c-0.8,0.1-1.6,0.3-2.3,0.4c-1,0.1-2.1,0.3-3.1,0.3c-1.1,0.1-2.3,0.2-3.4,0.2c-1.8,0.1-3.6,0.1-5.5,0.1c-1.7,0-3.4,0-5.2,0
		c-1,0-2.1,0-3.1-0.1c-0.1,0-0.1,0-0.2,0C1,14,1,14,1.1,14c1.7,0,3.4,0.1,5.1,0.1s3.4,0,5,0c1.3,0,2.6-0.1,3.9-0.1
		c2-0.1,4-0.3,6-0.5c0.8-0.1,1.7-0.3,2.5-0.4h0.1C23.9,13.2,23.9,13.2,23.8,13.3z"/>
	<path d="M6.4,14.6c0.2,0.2,0.3,0.5,0.6,0.7c0.3,0.3,0.8,0.3,1.2,0.1c0.3-0.2,0.5-0.4,0.7-0.7C9,14.6,9,14.6,9,14.5
		c0.2,0.2,0.3,0.5,0.5,0.7c0.4,0.5,1,0.6,1.5,0.3c0,0,0.1,0,0.2-0.1c0.3-0.3,0.6-0.6,1-0.9c0,0,0,0,0.1,0c0.2,0.2,0.4,0.5,0.6,0.7
		c0.5,0.4,1.1,0.3,1.7-0.2c0.2-0.2,0.4-0.4,0.6-0.7c0.1,0.1,0.1,0.2,0.2,0.4c0.2,0.2,0.4,0.4,0.6,0.6c0.4,0.3,0.8,0.2,1.1-0.1
		c0.3-0.3,0.5-0.6,0.8-0.9c0,0,0.1-0.1,0.1-0.2c0.1,0.2,0.3,0.4,0.4,0.6c0.1,0.1,0.2,0.2,0.3,0.3c0.4,0.3,0.9,0.3,1.2,0
		c0.3-0.2,0.5-0.6,0.7-0.8c0.1-0.1,0.1-0.2,0.2-0.3c0.1,0.1,0.1,0.2,0.1,0.3c0.1,0.2,0.2,0.4,0.4,0.6c0.2,0.3,0.6,0.3,0.8,0.1
		c0.3-0.3,0.6-0.5,0.8-0.8c0.2-0.2,0.3-0.4,0.4-0.6l0.1-0.1l0,0c0,0.1,0,0.1-0.1,0.2c-0.4,0.9-1,1.8-1.8,2.3c-1.1,0.7-2.3,1-3.6,1.3
		c-1.6,0.3-3.2,0.5-4.8,0.5c-1.9,0-3.8-0.2-5.6-0.4c-1.7-0.2-3.4-0.4-5.1-0.6c-0.4,0-0.5-0.3-0.7-0.6c-0.2-0.5-0.4-1.1-0.6-1.7
		c0,0,0,0,0-0.1c0.1,0,0.2,0,0.3,0.1c0.1,0.3,0.3,0.5,0.5,0.8c0.3,0.3,0.7,0.4,1,0.1c0.3-0.2,0.5-0.5,0.7-0.7c0,0,0-0.1,0.1-0.1
		c0.1,0.1,0.1,0.2,0.2,0.3c0.2,0.2,0.4,0.5,0.6,0.7c0.2,0.2,0.4,0.2,0.7,0.2h0.1l0,0c0.1,0,0.2-0.1,0.2-0.1c0.3-0.2,0.6-0.5,0.8-0.8
		C6.3,14.6,6.3,14.5,6.4,14.6z"/>
	<path d="M23.9,13.1c0.1,0.1,0.1,0.2-0.1,0.2c-0.8,0.1-1.6,0.3-2.3,0.4c-1,0.1-2.1,0.3-3.1,0.3c-1.1,0.1-2.3,0.2-3.4,0.2
		c-1.8,0.1-3.6,0.1-5.5,0.1c-1.7,0-3.4,0-5.2,0c-1,0-2.1,0-3.1-0.1c-0.1,0-0.1,0-0.2,0C1,14,1,14,1.1,14c1.7,0,3.4,0.1,5.1,0.1
		s3.4,0,5,0c1.3,0,2.6-0.1,3.9-0.1c2-0.1,4-0.3,6-0.5C22.1,13.4,22.9,13.2,23.9,13.1C23.8,13.1,23.8,13.1,23.9,13.1z"/>
	<path d="M18.2,14.1c0.9-0.1,1.7-0.2,2.6-0.3c-0.2,0.4-0.5,0.8-0.9,1.1c-0.4,0.3-0.7,0.3-1.1,0C18.5,14.7,18.3,14.4,18.2,14.1z"/>
	<path d="M11,15.4c-0.5,0.2-0.9,0.1-1.2-0.3c-0.2-0.2-0.3-0.4-0.5-0.7c1,0,1.9,0,2.8-0.1c0,0,0,0.1-0.1,0.1
		C11.7,14.9,11.3,15.2,11,15.4z"/>
	<path d="M15.3,14.3c0.9-0.1,1.7-0.1,2.6-0.2l0,0c-0.3,0.4-0.5,0.8-1,1.1c-0.4,0.2-0.7,0.2-1-0.1C15.7,14.9,15.5,14.6,15.3,14.3z"/>
	<path d="M20.9,13.8c0.9-0.1,1.6-0.2,2.5-0.4c-0.3,0.3-0.5,0.6-0.7,0.9c-0.1,0.2-0.3,0.3-0.5,0.5c-0.3,0.2-0.5,0.2-0.7-0.1
		C21.3,14.4,21.1,14.1,20.9,13.8z"/>
	<path d="M12.6,14.4c0.7,0,1.3,0,2-0.1c0.2,0,0.4,0,0.6,0c-0.3,0.4-0.7,0.8-1.2,1c-0.4,0.1-0.8,0-1.1-0.3c-0.2-0.2-0.3-0.4-0.5-0.5
		C12.4,14.4,12.5,14.4,12.6,14.4z"/>
	<path d="M5.3,15.5C5.2,15.5,5.2,15.5,5.3,15.5c-0.1,0-0.1,0-0.2,0H5l0,0c0,0,0,0-0.1,0c-0.1,0-0.1,0-0.2,0c-0.5-0.2-0.7-0.6-1-1.1
		c0.4,0,0.9,0,1.3,0c0.1,0,0.3,0,0.4,0l0,0c0.2,0,0.5,0,0.7,0C6,14.9,5.7,15.3,5.3,15.5z"/>
	<path d="M6.5,14.5c0.8,0,1.7,0,2.5,0c-0.4,0.4-0.7,0.9-1.2,1c-0.4,0.1-0.7-0.1-0.9-0.4C6.7,14.9,6.6,14.7,6.5,14.5L6.5,14.5z"/>
	<path d="M1.4,14.3c0.7,0,1.4,0,2.2,0.1c-0.3,0.4-0.6,0.8-1,1c-0.2,0.1-0.4,0-0.6-0.1C1.7,15,1.6,14.7,1.4,14.3z"/>
	<path class="st0" d="M6.5,14.5L6.5,14.5c0,0.1,0,0.1,0,0.2c-0.1-0.1-0.1,0-0.1,0C6.2,15,6,15.3,5.6,15.5c-0.1,0-0.2,0.1-0.2,0.1
		v-0.1C5.9,15.3,6.1,14.9,6.5,14.5c-0.3,0-0.6,0-0.8,0C5.9,14.5,6.1,14.5,6.5,14.5L6.5,14.5C6.4,14.5,6.4,14.5,6.5,14.5z"/>
	<path class="st0" d="M12.6,14.4c-0.1,0-0.2,0-0.2,0.1c0,0,0,0.1-0.1,0.1h-0.1c-0.3,0.3-0.6,0.6-1,0.9c0,0-0.1,0.1-0.2,0.1h-0.1
		c0.4-0.2,0.7-0.5,1-0.9c0,0,0-0.1,0.1-0.1l0.1-0.1C12.2,14.4,12.4,14.4,12.6,14.4z"/>
	<path class="st1" d="M5.5,14.4c-0.1,0-0.3,0-0.4,0C5.2,14.4,5.4,14.4,5.5,14.4z"/>
	<path class="st1" d="M4.8,15.5c0.1,0,0.1,0,0.2,0C4.9,15.5,4.8,15.5,4.8,15.5z"/>
	<path class="st1" d="M5.1,15.5C5.1,15.5,5.2,15.5,5.1,15.5C5.2,15.5,5.1,15.5,5.1,15.5z"/>
	<path class="st1" d="M5.3,15.6C5.2,15.6,5.2,15.6,5.3,15.6C5.2,15.6,5.2,15.6,5.3,15.6z"/>
	<path class="st1" d="M5,15.6L5,15.6L5,15.6z"/>
</g>
</svg>
